<?xml version="1.0" encoding="utf-8"?>
<!-- Generator: Adobe Illustrator 14.0.0, SVG Export Plug-In . SVG Version: 6.00 Build 43363)  -->
<!DOCTYPE svg PUBLIC "-//W3C//DTD SVG 1.1//EN" "http://www.w3.org/Graphics/SVG/1.1/DTD/svg11.dtd">
<svg version="1.1" id="Layer_1" xmlns="http://www.w3.org/2000/svg" xmlns:xlink="http://www.w3.org/1999/xlink" x="0px" y="0px" width="1117px" height="499px" viewBox="0 0 1117 499" enable-background="new 0 0 1117 499" xml:space="preserve">
<g>
	<path style="stroke: none;" fill-rule="evenodd" clip-rule="evenodd" fill="none" d="M1.322,0.646
		c371.991,0,744.012,0,1116,0c0,166.335,0,332.665,0,499c-372.338,0-744.653,0-1117,0c0-165.333,0-330.667,0-496
		C0.236,2.226,0.157,0.813,1.322,0.646z M83.322,96.646c-34.49,39.804-61.803,97.182-55,177c5.822,68.298,37.736,117.28,80,154
		c41.253,35.842,104.736,63.098,176,56c68.301-6.803,117.723-37.682,154-80c35.371-41.262,64.192-99.421,57-175
		c-6.806-71.518-38.667-118.322-79-155c-39.184-35.633-99.836-63.335-177-57C172.043,22.169,116.532,58.319,83.322,96.646z
		 M525.322,36.646c-1.654,19.753-1.654,46.247,0,66c3.964-0.369,9.583,0.917,12-1c0.661-9.006-1.326-20.659,1-28c10,0,20,0,30,0
		c0,9.333,0,18.667,0,28c2.417,1.917,8.035,0.631,12,1c0-22,0-44,0-66c-3.965,0.369-9.583-0.917-12,1
		c-0.588,8.413,1.226,19.226-1,26c-9.728-0.605-21.917,1.25-30-1c0-8.333,0-16.667,0-25
		C534.905,35.729,529.287,37.015,525.322,36.646z M665.322,61.646c-0.204-3.129,0.674-7.341-1-9c-3.333,0-6.667,0-10,0
		c0,16.667,0,33.333,0,50c3.667,0,7.333,0,11,0c0.634-17.291-3.436-43.776,11-43c13.391,0.72,6.15,26.501,8,42
		c2.293,1.563,9.706,1.563,12,0c0.394-17.145-3.809-45.448,12-42c11.823,2.579,5.173,27.83,7,43c3.667,0,7.333,0,11,0
		c-0.53-22.278,6.073-58.113-20-51c-5.29,1.443-5.196,7.246-11,10c-1.575-4.425-4.528-7.472-8-10
		C674.047,49.037,671.548,57.205,665.322,61.646z M780.322,93.646c-3.548-11.146,1.663-21.423-1-31c-4.616-16.6-37.503-14.979-40,2
		c7.123,6.919,12.29-5.029,17-6c8.273-1.705,11.972,2.286,12,13c-11.592,3.027-18.71-0.854-26,4c-13.295,8.853-4.847,27.977,9,28
		c9.901,0.016,11.887-5.505,18-10c0.195,4.471,3.131,6.202,5,9c4.671-0.662,12.601,1.935,13-3
		C787.716,94.918,780.82,97.48,780.322,93.646z M833.322,53.646c-10.052-6.675-21.53,0.595-28,8c-0.204-3.129,0.674-7.341-1-9
		c-3.333,0-6.667,0-10,0c0,16.667,0,33.333,0,50c3.667,0,7.333,0,11,0c0.175-19.168-2.975-44.061,13-43
		c14.642,0.972,7.176,25.532,9,42c2.293,1.563,9.706,1.563,12,0C836.826,84.481,844.871,61.315,833.322,53.646z M612.322,103.646
		c8.265-0.765,10.244-8.55,16-10c0.204,3.129-0.675,7.341,1,9c3.333,0,6.666,0,10,0c0-16.667,0-33.333,0-50
		c-3.965,0.369-9.583-0.917-12,1c0.001,18.499,3.841,46.819-15,41c-11.041-3.41-3.932-26.565-6-41c-2.417-1.917-8.036-0.631-12-1
		C594.504,76.817,589.512,105.758,612.322,103.646z M579.322,156.646c-8.803-12.946-33.736-6.211-54-8
		c-1.654,19.753-1.654,46.247,0,66c3.964-0.369,9.583,0.917,12-1c0.582-8.085-1.218-18.551,1-25c5.667,0,11.333,0,17,0
		c5.155,8.844,10.286,17.713,16,26c4,0,8,0,12,0c-3.449-11.218-11.748-17.586-16-28
		C580.191,182.977,586.688,167.478,579.322,156.646z M625.322,164.646c-27.841-10.994-46.039,29.324-26,46
		c9.355,7.786,33.651,7.148,36-8c-9.381-2.478-14.475,7.066-23,5c-5.567-1.349-7.934-6.617-8-16c9.187-2.147,22.197-0.469,33-1
		C636.782,176.621,633.161,167.741,625.322,164.646z M653.322,189.646c8.012,5.448,23.233,0.674,27,12
		c-3.255,10.915-22.608,7.113-27,0c-1.289,1.378-4.344,0.99-7,1c2.33,21.769,51.173,15.778,44-8c-3.098-10.27-32.305-7.729-32-18
		c0.193-6.518,9.128-7.399,15-6c5.086,1.212,7.869,9.605,15,5C682.688,147.101,627.227,171.901,653.322,189.646z M703.322,172.646
		c-20.75,30.096,24.198,58.506,42,34c15.544-21.397-3.169-47.643-28-42C711.107,166.058,706.382,168.208,703.322,172.646z
		 M832.322,174.646c-1.036-2.631-1.196-6.137-1-10c-3.667,0-7.333,0-11,0c0,16.333,0,32.667,0,49c2.293,1.563,9.706,1.563,12,0
		c1.105-17.895-5.782-43.782,16-41c0-3,0-6,0-9C837.275,161.598,836.896,170.22,832.322,174.646z M854.322,190.646
		c0.909,26.629,37.306,34.592,46,9c-17.068-5.915-10.614,11.385-25,8c-13.179-3.101-11.638-39.35,5-37
		c7.684,1.085,6.241,13.427,19,8C887.848,150.112,853.458,165.349,854.322,190.646z M938.322,163.646
		c-31.14-6.956-41.532,36.319-20,49c10.067,5.93,31.234,3.691,33-10c-9.512-2.123-15.284,8.015-24,5c-5.042-1.744-5.646-7.601-7-15
		c7.579-4.087,22.255-1.079,33-2C954.494,178.228,948.663,165.956,938.322,163.646z M779.322,215.646
		c7.372-0.801,10.404-8.128,15-10c-0.785,4.118,1.535,5.132,1,9c3.333,0,6.666,0,10,0c2.301-14.366,0.357-32.976,1-49
		c-2.417-1.917-8.036-0.631-12-1c0.515,19.016,2.955,48.153-16,42c-10.957-3.557-3.947-27.418-6-42c-4,0-8,0-12,0
		C760.18,189.106,756.21,218.157,779.322,215.646z M525.322,260.646c-1.654,19.754-1.654,46.246,0,66c3.333,0,6.667,0,10,0
		c0.665-17.668-1.331-37.998,1-54c3.457,6.546,5.211,16.408,9,28c2.896,8.86,5.457,28.535,16,26c8.562-15.438,11.152-36.848,19-53
		c1.875,16.125,0.658,35.341,1,53c3.333,0,6.666,0,10,0c0-22,0-44,0-66c-5.667,0-11.333,0-17,0c-6.083,15.917-8.591,35.409-17,49
		c-4.399-16.935-10.121-32.546-15-49C536.655,260.646,530.989,260.646,525.322,260.646z M1084.322,276.646
		c-2.062,0.605-6.947-1.614-6,2c-1.9,5.9,3.884,4.116,6,6c3.174,11.159-1.672,30.338,3,40c4.782,2.962,19.278,5.853,20-3
		c-1.117-3.55-8.257-1.077-10-4c-1.4-9.358-1.829-24.713,0-34c3.129-0.204,7.341,0.675,9-1c0-2,0-4,0-6
		c-3.857-0.143-8.781,0.781-10-2c0-3.333,0-6.667,0-10C1087.489,260.422,1087.975,272.525,1084.322,276.646z M645.322,315.646
		c-1.593-14.76,3.864-28.004-5-36c-8.833-7.969-33.76-6.221-35,9c1.893,1.774,6.604,0.729,10,1c2.527-10.881,22.855-9.019,18,7
		c-21.447-5.034-39.968,10.375-29,26c6.872,9.791,25.322,3.896,30-5c1.685,3.314,2.561,7.439,6,9c4.502-0.831,13.221,2.554,12-4
		C650.968,319.333,645.354,320.281,645.322,315.646z M702.322,281.646c-7.104-11.078-25.196-6.069-31,4c-1.451-2.549,0.65-8.65-3-9
		c-3,0-6,0-9,0c0,16.333,0,32.667,0,49c2.293,1.563,9.706,1.563,12,0c0.148-19.146-3.394-43.814,13-42
		c13.922,1.54,7.496,25.617,9,42c2.146,1.853,7.325,0.675,11,1C703.855,311.673,709.479,292.806,702.322,281.646z M758.322,316.646
		c0.311-18.969,2.231-37.523-13-41c-12.439-2.839-25.048,1.496-28,13c2.803,1.196,6.9,1.1,11,1c2.283-12.223,24.308-6.819,17,7
		c-17.44-1.346-30.934,2.243-31,16c-0.093,18.956,26.662,17.627,33,5c1.07,3.596,2.781,6.552,5,9c4.378-0.955,13.129,2.462,13-3
		C765.394,318.907,758.247,321.387,758.322,316.646z M794.322,275.646c-35.748-9.02-31.787,61.698,1,50
		c4.412-1.574,4.604-6.803,10-7c5.636,19.786-15.214,27.227-24,15c-3.114,0.552-6.517,0.816-9,2c4.518,13.752,27.262,14.714,37,8
		c15.646-10.787,1.981-45.364,8-66c-2.147-1.854-7.325-0.675-11-1c-2.155,0.845,0.375,6.375-2,7
		C799.521,280.83,798.961,276.815,794.322,275.646z M858.322,275.646c-31.14-6.956-41.532,36.318-20,49
		c10.068,5.93,31.234,3.69,33-10c-9.512-2.123-15.284,8.015-24,5c-5.042-1.744-5.646-7.602-7-15c7.579-4.087,22.255-1.078,33-2
		C874.494,290.229,868.663,277.955,858.322,275.646z M896.322,285.646c-0.204-3.129,0.674-7.341-1-9c-3.334,0-6.667,0-10,0
		c-0.223,12.95,0.16,33.794,0,50c3.666,0,7.333,0,11,0c0.575-17.269-3.567-44.007,11-43c13.066,0.903,6.313,26.438,8,42
		c2.293,1.563,9.706,1.563,12,0c0.475-17.166-3.985-45.486,12-42c11.702,2.553,5.206,27.906,7,43c3.666,0,7.333,0,11,0
		c-0.528-22.348,6.067-58.021-20-51c-5.563,1.498-5.102,7.095-11,10c-1.575-4.425-4.528-7.472-8-10
		C905.131,273.12,902.323,280.979,896.322,285.646z M998.322,275.646c-31.14-6.956-41.532,36.318-20,49
		c10.067,5.93,31.234,3.69,33-10c-9.512-2.123-15.284,8.015-24,5c-5.042-1.744-5.646-7.602-7-15c7.579-4.087,22.255-1.078,33-2
		C1014.494,290.229,1008.663,277.955,998.322,275.646z M1064.322,277.646c-9.96-6.613-21.694,0.485-28,8
		c-0.205-3.129,0.674-7.341-1-9c-3.334,0-6.667,0-10,0c-0.223,12.95,0.16,33.794,0,50c3.666,0,7.333,0,11,0
		c0.458-18.585-3.521-43.125,12-43c15.276,0.123,8.545,24.658,10,42c2.293,1.563,9.706,1.563,12,0
		C1067.832,308.553,1075.856,285.306,1064.322,277.646z M526.322,399.646c7.341,12.199,39.723,5.322,40,21
		c0.275,15.55-31.179,11.85-35,0c-2.36,1.307-6.911,0.423-9,2c3.378,33.972,76.504,12.939,52-15c-6.846-7.806-39.496-5.306-38-20
		c0.764-7.503,13.137-10.025,21-7c4.943,1.901,4.619,6.418,9,8c1.621-2.046,7.379,0.046,9-2
		C571.977,358.123,509.544,371.762,526.322,399.646z M697.322,388.646c-2.062,0.605-6.947-1.614-6,2c0,1.333,0,2.667,0,4
		c-0.164,2.831,6.164-0.831,6,2c0.278,18.248-3.677,42.325,12,43c4.792,0.206,11.78,0.369,10-8c-4.238,0.238-7.922-0.079-9-3
		c-1.649-8.781-1.649-24.22,0-33c3.129-0.204,7.341,0.675,9-1c0-2,0-4,0-6c-3.857-0.143-8.781,0.781-10-2c0-3.333,0-6.667,0-10
		C700.294,372.228,700.981,384.532,697.322,388.646z M642.322,396.646c-8.456,26.516,34.462,14.467,32,30
		c-0.933,5.884-11.135,7.955-19,5c-6.478-2.434-5.316-8.952-14-5c4.547,19.774,42.362,16.263,44-1c2.044-21.55-26.895-10.811-33-26
		c8.284-13.479,20.442,3.67,31,0C681.98,383.11,647.453,384.296,642.322,396.646z M731.322,393.646c-4.832,5.138-6,14.854-6,20
		c0,26.419,33.827,36.049,44,13c-9.22-2.489-14.806,6.958-23,5c-5.57-1.331-8.169-6.483-8-16c9.187-2.147,22.197-0.469,33-1
		C775.952,389.987,745.047,379.05,731.322,393.646z M815.322,387.646c-11.06-3.18-16.918,7.179-22,9c0-2.667,0-5.333,0-8
		c-3.667,0-7.333,0-11,0c0,16.333,0,32.667,0,49c2.293,1.563,9.706,1.563,12,0c0.865-16.952-4.472-44.237,11-42
		c13.202,1.909,3.579,29.565,8,43c3.675-0.325,8.853,0.853,11-1c0.252-17.482-3.466-44.832,12-42c11.995,2.196,5.113,27.128,7,42
		c2.146,1.853,7.325,0.675,11,1c0.568-20.322,8.093-56.028-20-51c-4.735,2.265-5.798,8.202-11,10
		C821.729,392.861,819.078,388.726,815.322,387.646z M587.322,452.646c-0.954,10.929,16.01,5.148,18,4
		c14.99-8.653,19.395-55.263,29-68c-4,0-8,0-12,0c-4.81,12.524-6.79,27.876-13,39c-4.103-13.23-8.869-25.798-13-39c-4,0-8,0-12,0
		C587.47,408.587,620.504,444.371,587.322,452.646z"/>
	<path fill-rule="evenodd" class="svg-img-fill" clip-rule="evenodd" d="M537.322,37.646c0,8.333,0,16.667,0,25
		c8.083,2.25,20.272,0.395,30,1c2.226-6.774,0.412-17.587,1-26c2.417-1.917,8.035-0.631,12-1c0,22,0,44,0,66
		c-3.965-0.369-9.583,0.917-12-1c0-9.333,0-18.667,0-28c-10,0-20,0-30,0c-2.326,7.341-0.339,18.994-1,28
		c-2.417,1.917-8.036,0.631-12,1c-1.654-19.753-1.654-46.247,0-66C529.287,37.015,534.905,35.729,537.322,37.646z"/>
	<path fill-rule="evenodd" clip-rule="evenodd" fill="none" d="M253.322,42.646
		c3.667,0,7.333,0,11,0c2.807,5.86,6.961,10.373,9,17c2.311-3.356,0.35-10.983,1-16c1.822-1.528,8.178-1.528,10,0
		c-1.865,10.469,0.204,24.871-2,35c-14.047,1.381-13-12.333-19-19c-2.315,4.018-0.347,12.32-1,18c-3,0-6,0-9,0
		C253.322,65.979,253.322,54.312,253.322,42.646z"/>
	<path fill-rule="evenodd" clip-rule="evenodd" fill="none" d="M246.322,43.646
		c1.459,10.874,1.406,23.261,3,34c-2.293,1.563-9.707,1.563-12,0C240.32,65.645,225.698,40.292,246.322,43.646z"/>
	<path fill-rule="evenodd" clip-rule="evenodd" fill="none" d="M287.322,79.646
		c1.405-12.262,5.091-22.242,7-34c10.264,1.475,19.26,1.566,24,7c7.179,8.229,4.419,26.868-8,30
		C302.447,84.632,296.559,80.057,287.322,79.646z M300.322,73.646c11.879,2.439,12.794-16.398,4-18
		C302.891,61.548,301.006,66.996,300.322,73.646z"/>
	<path fill-rule="evenodd" class="svg-img-fill" clip-rule="evenodd" d="M687.322,51.646
		c3.472,2.528,6.425,5.575,8,10c5.804-2.754,5.71-8.557,11-10c26.073-7.113,19.47,28.722,20,51c-3.667,0-7.333,0-11,0
		c-1.827-15.17,4.823-40.421-7-43c-15.809-3.448-11.606,24.855-12,42c-2.294,1.563-9.707,1.563-12,0c-1.85-15.499,5.391-41.28-8-42
		c-14.436-0.776-10.366,25.709-11,43c-3.667,0-7.333,0-11,0c0-16.667,0-33.333,0-50c3.333,0,6.667,0,10,0
		c1.674,1.659,0.796,5.871,1,9C671.548,57.205,674.047,49.037,687.322,51.646z"/>
	<path fill-rule="evenodd" class="svg-img-fill" clip-rule="evenodd" d="M787.322,99.646
		c-0.399,4.935-8.329,2.338-13,3c-1.869-2.798-4.805-4.529-5-9c-6.113,4.495-8.099,10.016-18,10c-13.847-0.023-22.295-19.147-9-28
		c7.29-4.854,14.408-0.973,26-4c-0.028-10.714-3.727-14.705-12-13c-4.71,0.971-9.877,12.919-17,6c2.497-16.979,35.384-18.6,40-2
		c2.663,9.577-2.548,19.854,1,31C780.82,97.48,787.716,94.918,787.322,99.646z M751.322,94.646c0.775,0.224,1.973,0.027,2,1
		c10.369,0.036,14.816-5.85,14-17C754.219,75.66,744.519,84.072,751.322,94.646z"/>
	<path fill-rule="evenodd" class="svg-img-fill" clip-rule="evenodd" d="M839.322,101.646
		c-2.294,1.563-9.707,1.563-12,0c-1.824-16.468,5.642-41.028-9-42c-15.975-1.061-12.825,23.832-13,43c-3.667,0-7.333,0-11,0
		c0-16.667,0-33.333,0-50c3.333,0,6.667,0,10,0c1.674,1.659,0.796,5.871,1,9c6.47-7.405,17.948-14.675,28-8
		C844.871,61.315,836.826,84.481,839.322,101.646z"/>
	<path fill-rule="evenodd" class="svg-img-fill" clip-rule="evenodd" d="M594.322,52.646
		c3.964,0.369,9.583-0.917,12,1c2.068,14.435-5.041,37.59,6,41c18.841,5.819,15.001-22.501,15-41c2.417-1.917,8.035-0.631,12-1
		c0,16.667,0,33.333,0,50c-3.334,0-6.667,0-10,0c-1.675-1.659-0.796-5.871-1-9c-5.756,1.45-7.735,9.235-16,10
		C589.512,105.758,594.504,76.817,594.322,52.646z"/>
	<path fill-rule="evenodd" class="svg-img-fill" clip-rule="evenodd" d="M304.322,55.646
		c8.794,1.602,7.879,20.439-4,18C301.006,66.996,302.891,61.548,304.322,55.646z"/>
	<path fill-rule="evenodd" clip-rule="evenodd" fill="none" d="M331.322,55.646
		c4.797,0.203,7.519,2.481,11,4c-4.146,10.52-8.155,21.179-12,32c-5.116,0.449-6.595-2.739-11-3
		C322.375,76.698,327.804,67.127,331.322,55.646z"/>
	<path fill-rule="evenodd" clip-rule="evenodd" fill="none" d="M195.322,65.646
		c8.595-3.223,12.073,1.739,13,5c3.952,13.908-16.448,18.934-19,6C188.014,70.016,189.894,67.681,195.322,65.646z"/>
	<path fill-rule="evenodd" clip-rule="evenodd" fill="none" d="M367.322,72.646
		c-1.104,13.229-4.518,24.149-7,36c-3.884-0.783-6.184-3.149-9-5c-2.255-2.162,0.828-3.411,0-7c-1.091-2.243-4.909-1.758-6-4
		c-4.233,4.251-9.682,4.574-14,0c7.717-8.95,17.714-15.62,25-25C361.324,67.977,363.907,70.727,367.322,72.646z M351.322,87.646
		c3.933,1.199,4.994-5.583,3-7C354.838,84.511,348.561,84.59,351.322,87.646z"/>
	<path fill-rule="evenodd" clip-rule="evenodd" fill="none" d="M154.322,96.646
		c0.132-2.465,0.151-4.818-1-6c-10.04,6.293-19.589,13.078-27,22c4.448,2.885,9.403,5.264,8,14c6.082,1.635,13.091-3.808,16,1
		c-5.213,5.521-26.101,12.005-30,1c-1.227-4.561,3.507-3.16,4-6c0.729-2.729-1.987-2.013-2-4c-6.851,0.62-8.032,10.646-17,6
		c1.196-4.471,5.471-5.863,7-10c-9.099-2.099-10.082,3.918-15,6c-2.488,0.154-3.096-1.571-5-2c1.44-15.232,15.516-8.125,26-11
		c5.955-1.633,13.81-11.146,20-16c7.715-6.049,14.307-10.839,21-15c2.101,1.232,3.899,2.768,6,4c0.468,3.135-2.514,2.819-4,4
		c4.278,9.055,13.058,13.608,16,24c-3.708-0.708-4.292,1.708-8,1c-3.415-2.252-5.579-5.755-8-9c-3.747-0.08-0.253,7.08-4,7
		c-5.101,1.434-4.274-3.06-7-4c-2.036,0.297-2.664,2.003-4,3c0.48,6.853,7.073,7.594,15,7c0,2,0,4,0,6
		C136.976,126.773,129.755,94.939,154.322,96.646z"/>
	<path fill-rule="evenodd" clip-rule="evenodd" fill="none" d="M767.322,78.646
		c0.816,11.15-3.631,17.036-14,17c-0.027-0.973-1.225-0.776-2-1C744.519,84.072,754.219,75.66,767.322,78.646z"/>
	<path fill-rule="evenodd" class="svg-img-fill" clip-rule="evenodd" d="M354.322,80.646
		c1.994,1.417,0.933,8.199-3,7C348.561,84.59,354.838,84.511,354.322,80.646z"/>
	<path fill-rule="evenodd" clip-rule="evenodd" fill="none" d="M380.322,103.646
		c-3.854,0.166-7.927,8.725-12,12c-3.133-0.867-5.522-2.478-7-5c6.296-10.037,14.756-17.91,22-27c2.526,2.474,6.066,3.934,8,7
		c-0.799,6.867-2.076,13.258-3,20c3.777-4.223,6.33-9.67,11-13c17.505,5.06-11.597,23.089-15,32c-3.866-0.134-3.944-4.056-7-5
		C377.169,116.492,378.431,109.754,380.322,103.646z"/>
	<path fill-rule="evenodd" clip-rule="evenodd" fill="none" d="M259.322,88.646
		c4.195,1.138,2.182,8.485,10,6c0.168,3.502-3.519,3.148-5,5c0.777,2.223,2.101,3.899,2,7c-4.266-3.391-7.471-2.98-12,0
		c0.105-2.561,0.566-4.767,2-6c-0.375-3.292-5.316-2.017-5-6C257.01,95.667,259.808,93.798,259.322,88.646z"/>
	<path fill-rule="evenodd" clip-rule="evenodd" fill="none" d="M205.322,97.646
		c3.506,1.607,5.623,7.768,10,3c1.72,2.846-3.539,8.635,2,11c-5.481,0.575-7.753,0.836-11,5c-0.711-4.289-1.121-8.879-7-8
		C201.901,105.558,207.311,105.301,205.322,97.646z"/>
	<path fill-rule="evenodd" clip-rule="evenodd" fill="none" d="M314.322,97.646
		c-0.093,6.093,4.046,7.954,7,11c-3.059-0.725-2.941,1.725-6,1c0,2.333,0,4.667,0,7c-3.405,0.072-3.725-2.941-5-5
		c-2.833,0.167-4.167,1.833-7,2c1.185-3.958,5.41-8.41,0-11C307.507,101.598,312.944,103.348,314.322,97.646z"/>
	<path fill-rule="evenodd" clip-rule="evenodd" fill="none" d="M280.322,380.646
		c12.438-14.912,34.999-19.722,51-31c27.548-19.417,56.141-55.235,53-108c-3.996-67.127-58.475-122.625-137-117
		c-83.046,5.949-141.724,107.178-94,186c-3.589,7.137,1.108,10.44,0,16c-16.063-19.974-24.94-39.695-27-68
		c-5.677-77.999,54.085-142.55,129-145c77.848-2.546,141.979,59.641,139,139C391.749,321.2,347.413,365.972,280.322,380.646z"/>
	<path fill-rule="evenodd" clip-rule="evenodd" fill="none" d="M423.322,123.646
		c9.723,6.868,24.124,37.162-2,33c-3.495,2.838-5.182,7.485-8,11c9.27,0.928,23.478-1.849,35-2c2.062,3.272,3.734,6.932,5,11
		c-10.257,6.743-17.739,16.261-29,22c-1.519-3.147-2.984-6.35-4-10c1.502-1.498,4.211-1.789,5-4c0.23-3.897-2.148-5.185-3-8
		c-3.059-0.726-2.941,1.725-6,1c-3.021-6.646-7.04-12.293-11-18c1.586-5.414,6.121-7.879,8-13c-4.065-2.27-7.266,3.732-11,5
		c-4.363-0.637-4.877-5.123-7-8C402.861,135.184,414.877,131.2,423.322,123.646z M419.322,139.646c0.594,3.739,1.564,7.103,6,7
		C428.277,142.607,424.175,136.12,419.322,139.646z M431.322,175.646c0.042,5.595,6.313,1.499,7-1
		C435.166,174.156,434.791,176.447,431.322,175.646z"/>
	<path fill-rule="evenodd" clip-rule="evenodd" fill="none" d="M167.322,124.646
		c4.003,2.052-1.248,9.837,6,10c-3.038,2.629-8.903,2.43-8,9c-2.805-0.862-2.127-5.206-4-7c-2.356-0.022-2.944,1.723-6,1
		c2.403-4.496,5.224-6.218,2-12C160.611,126.877,165.989,129.518,167.322,124.646z"/>
	<path fill-rule="evenodd" clip-rule="evenodd" fill="none" d="M351.322,125.646
		c4.501,3.626,7.012,2.522,12,0c-2.787,6.219-0.687,7.221,2,12c-4.801-0.467-8.88-0.213-8,5c-4.723-0.611-1.889-8.778-10-6
		C348.88,132.364,354.771,132.329,351.322,125.646z"/>
	<path fill-rule="evenodd" clip-rule="evenodd" fill="none" d="M319.322,145.646
		c-17.615-1.977-31.742,2.73-45,0c-4.425-0.912-7.625-5.292-12-6c-9.048-1.463-15.412,4.46-25,6c-11.82,1.898-22.417-1.4-36,0
		C226.272,122.977,294.303,123.268,319.322,145.646z"/>
	<path fill-rule="evenodd" class="svg-img-fill" clip-rule="evenodd" d="M425.322,146.646
		c-4.436,0.103-5.406-3.261-6-7C424.175,136.12,428.277,142.607,425.322,146.646z"/>
	<path fill-rule="evenodd" clip-rule="evenodd" fill="none" d="M142.322,226.646
		c4.393-11.343,15.541-18.211,25-27c17.313-16.084,34.596-30.776,58-45c10.123-6.152,25.314-16.033,38-13
		c11.202,2.678,14.879,20.935,10,35c-5.636-1.857-14.988-0.132-19-1c-3.576-19.24-28.149-6.039-40,0
		c-19.569,9.972-34.496,20.834-50,34C156.471,216.313,150.241,224.658,142.322,226.646z"/>
	<path fill-rule="evenodd" clip-rule="evenodd" fill="none" d="M97.322,145.646
		c-2.213,11.706,14.699,11.611,22,17c-1.625,4.896-6.172,8.102-12,6c1.603,11.378-7.91,16.609-18,13c0.058-3.033,3.021-8.897-1-10
		c-5.713-0.047-4.788,6.546-7,10c6.377,5.29,17.07,6.264,25,10c-4.26,13.159-19.044,2.161-28,0c-2.156,0.844-0.844,5.156-3,6
		c7.054,3.946,18.459,3.541,27,6c-1.216,3.45-3.304,6.029-6,8c-4.772,0.772-6.436-1.564-11-1c-3.036,1.631-2.444,6.89-4,10
		c5.329,8.185,12.276-6.589,18-4c-2.633,9.7-9.725,14.941-22,15c-7.488-4.88,1.918-19.225-3-24c-4.672,9.328-4.786,23.214-6,36
		c6.174-2.032,14.168-1.194,16,4c6.708-1.292,5.325-10.675,13-11c-1.239,9.3-8.677,25.752-22,23c-2.26-3.217,0.878-6.629-1-9
		c-9.05-2.748-5.91,9.863-5,14c8.591-1.409,17.99-2.01,27-3c0.123,4.456-2.467,6.199-3,10c-8.255,0.078-14.906,1.761-23,2
		c0,1.333,0,2.667,0,4c8.775,2.429,18.374-2.95,28-3c-0.163,6.503-2.144,11.189-9,11c0.724,2.275,0.892,5.108,2,7
		c0.818,2.432,5.272-1.982,7,1c2.831,6.747,0.38,16.197-6,17c-2.867-1.466-4.043-4.624-6-7c1.025,5.291,5.011,17.681-4,19
		c-13.698,2.006-11.518-24.337,1-27c-0.153-3.181-2.267-4.399-2-8c-3.643-0.31-6.508,0.159-9,1c2.101,6.028,3.298,13.979-4,15
		c-8.131-25.571-10.842-64.881-4-94c-1.11-1.367-5.503,2.439-10,1c-6.965-15.533,5.095-27.827,18-30
		c4.762-11.905,10.512-22.821,16-34C92.19,147.18,93.204,144.86,97.322,145.646z M89.322,161.646c2.356,4.521,11.104,6.135,7,14
		c5.232,0.232,3.864-6.136,4-11C96.992,163.562,93.678,158.53,89.322,161.646z M60.322,200.646c6.693,1.774,10.762-8.893,7-11
		C64.35,192.673,59.795,194.118,60.322,200.646z M81.322,315.646c1.364-1.349,1.906-6.981-1-7
		C80.917,310.717,79.086,315.215,81.322,315.646z"/>
	<path fill-rule="evenodd" clip-rule="evenodd" fill="none" d="M230.322,147.646
		c-7.364,8.302-19.313,12.02-27,20c-10,0-20,0-30,0C181.81,150.466,201.586,144.576,230.322,147.646z"/>
	<path fill-rule="evenodd" clip-rule="evenodd" fill="none" d="M274.322,147.646
		c17,0,34,0,51,0c7.702,6.298,17.047,10.953,22,20c-23.333,0-46.667,0-70,0C275.935,161.366,275.634,154,274.322,147.646z"/>
	<path fill-rule="evenodd" class="svg-img-fill" clip-rule="evenodd" d="M567.322,186.646
		c4.252,10.414,12.551,16.782,16,28c-4,0-8,0-12,0c-5.714-8.287-10.845-17.156-16-26c-5.667,0-11.333,0-17,0
		c-2.218,6.449-0.418,16.915-1,25c-2.417,1.917-8.036,0.631-12,1c-1.654-19.753-1.654-46.247,0-66c20.264,1.789,45.197-4.946,54,8
		C586.688,167.478,580.191,182.977,567.322,186.646z M537.322,179.646c17.423,1.338,36.609,0.439,32-15
		c-2.773-9.291-18.519-6.441-32-7C537.322,164.979,537.322,172.312,537.322,179.646z"/>
	<path fill-rule="evenodd" clip-rule="evenodd" fill="none" d="M537.322,157.646
		c13.481,0.559,29.227-2.291,32,7c4.609,15.439-14.577,16.338-32,15C537.322,172.312,537.322,164.979,537.322,157.646z"/>
	<path fill-rule="evenodd" class="svg-img-fill" clip-rule="evenodd" d="M100.322,164.646
		c-0.136,4.864,1.232,11.232-4,11c4.104-7.865-4.644-9.479-7-14C93.678,158.53,96.992,163.562,100.322,164.646z"/>
	<path fill-rule="evenodd" clip-rule="evenodd" fill="none" d="M131.322,163.646
		c3.017,2.649,2.164,9.169,9,8c-0.803,2.53-4.117,2.55-6,4c-0.489,3.156,1.802,3.531,1,7c-2.092-1.242-3.758-2.908-5-5
		c-3.164-0.164-3.342,2.658-7,2c3.099-4.901,0.834-7.392-1-12C127.305,169.595,130.405,168.179,131.322,163.646z"/>
	<path fill-rule="evenodd" clip-rule="evenodd" fill="none" d="M387.322,163.646
		c2.502,1.536,5.246,8.036,10,4c1.823,3.767-4.542,7.025,0,12c-5.508-1.939-7.977-2.307-10,3c-1.825-4.375-1.973-8.147-7-11
		C385.302,171.625,388.6,169.923,387.322,163.646z"/>
	<path fill-rule="evenodd" class="svg-img-fill" clip-rule="evenodd" d="M637.322,190.646
		c-10.803,0.531-23.813-1.147-33,1c0.066,9.383,2.433,14.651,8,16c8.525,2.066,13.619-7.478,23-5c-2.349,15.148-26.645,15.786-36,8
		c-20.039-16.676-1.841-56.994,26-46C633.161,167.741,636.782,176.621,637.322,190.646z M605.322,183.646c6.667,0,13.333,0,20,0
		C628.665,166.763,601.874,166.634,605.322,183.646z"/>
	<path fill-rule="evenodd" class="svg-img-fill" clip-rule="evenodd" d="M688.322,175.646
		c-7.131,4.605-9.914-3.788-15-5c-5.872-1.399-14.807-0.518-15,6c-0.305,10.271,28.902,7.73,32,18c7.173,23.778-41.67,29.769-44,8
		c2.656-0.01,5.711,0.378,7-1c4.392,7.113,23.745,10.915,27,0c-3.767-11.326-18.988-6.552-27-12
		C627.227,171.901,682.688,147.101,688.322,175.646z"/>
	<path fill-rule="evenodd" class="svg-img-fill" clip-rule="evenodd" d="M717.322,164.646
		c24.831-5.643,43.544,20.603,28,42c-17.802,24.506-62.75-3.904-42-34C706.382,168.208,711.107,166.058,717.322,164.646z
		 M722.322,207.646c22.322,3.088,18.85-43.938-3-35C708.063,177.251,709.734,205.904,722.322,207.646z"/>
	<path fill-rule="evenodd" class="svg-img-fill" clip-rule="evenodd" d="M848.322,163.646c0,3,0,6,0,9
		c-21.782-2.782-14.895,23.105-16,41c-2.294,1.563-9.707,1.563-12,0c0-16.333,0-32.667,0-49c3.667,0,7.333,0,11,0
		c-0.196,3.863-0.036,7.369,1,10C836.896,170.22,837.275,161.598,848.322,163.646z"/>
	<path fill-rule="evenodd" class="svg-img-fill" clip-rule="evenodd" d="M899.322,178.646
		c-12.759,5.427-11.316-6.915-19-8c-16.638-2.35-18.179,33.899-5,37c14.386,3.385,7.932-13.915,25-8
		c-8.694,25.592-45.091,17.629-46-9C853.458,165.349,887.848,150.112,899.322,178.646z"/>
	<path fill-rule="evenodd" class="svg-img-fill" clip-rule="evenodd" d="M953.322,190.646
		c-10.745,0.921-25.421-2.087-33,2c1.354,7.399,1.958,13.256,7,15c8.716,3.015,14.488-7.123,24-5c-1.766,13.691-22.933,15.93-33,10
		c-21.532-12.681-11.14-55.956,20-49C948.663,165.956,954.494,178.228,953.322,190.646z M921.322,183.646c7,0,14,0,21,0
		C944.626,167.213,918.879,166.513,921.322,183.646z"/>
	<path fill-rule="evenodd" class="svg-img-fill" clip-rule="evenodd" d="M760.322,164.646c4,0,8,0,12,0
		c2.053,14.582-4.957,38.443,6,42c18.955,6.153,16.515-22.984,16-42c3.964,0.369,9.583-0.917,12,1c-0.643,16.024,1.301,34.634-1,49
		c-3.334,0-6.667,0-10,0c0.535-3.868-1.785-4.882-1-9c-4.596,1.872-7.628,9.199-15,10
		C756.21,218.157,760.18,189.106,760.322,164.646z"/>
	<path fill-rule="evenodd" clip-rule="evenodd" fill="none" d="M197.322,170.646
		c-10.353,9.647-17.322,22.678-41,19c3.85-7.15,7.858-14.142,14-19C179.322,170.646,188.322,170.646,197.322,170.646z"/>
	<path fill-rule="evenodd" clip-rule="evenodd" fill="none" d="M253.322,172.646
		c-2.8,7.399-3.689,6.328-2,16c-17.357,2.31-38.982,0.351-58,1C207.036,178.905,227.294,164.446,253.322,172.646z"/>
	<path fill-rule="evenodd" clip-rule="evenodd" fill="none" d="M276.322,170.646
		c21.615,4.308,53.929-5.781,73,0c8.814,2.672,8.844,13.053,15,18c-26.342,1.674-59.655,1.656-86,0
		C278.573,181.235,277.935,179.353,276.322,170.646z"/>
	<path fill-rule="evenodd" clip-rule="evenodd" fill="none" d="M625.322,183.646
		c-6.667,0-13.333,0-20,0C601.874,166.634,628.665,166.763,625.322,183.646z"/>
	<path fill-rule="evenodd" clip-rule="evenodd" fill="none" d="M942.322,183.646
		c-7,0-14,0-21,0C918.879,166.513,944.626,167.213,942.322,183.646z"/>
	<path fill-rule="evenodd"  clip-rule="evenodd" fill="none" d="M719.322,172.646
		c21.85-8.938,25.322,38.088,3,35C709.734,205.904,708.063,177.251,719.322,172.646z"/>
	<path fill-rule="evenodd" class="svg-img-fill" clip-rule="evenodd" d="M438.322,174.646
		c-0.687,2.499-6.958,6.595-7,1C434.791,176.447,435.166,174.156,438.322,174.646z"/>
	<path fill-rule="evenodd" clip-rule="evenodd" fill="none" d="M277.322,182.646
		c-5.472,0.071-18.092-2.597-25,1C252.409,174.584,275.809,175.613,277.322,182.646z"/>
	<path fill-rule="evenodd" class="svg-img-fill" clip-rule="evenodd" d="M261.322,186.646
		c4.508,3.159,0.783,14.55,2,21C259.048,204.253,262.374,193.26,261.322,186.646z"/>
	<path fill-rule="evenodd" class="svg-img-fill" clip-rule="evenodd" d="M265.322,186.646
		c3.297,2.568,3.297,18.432,0,21C265.322,200.646,265.322,193.646,265.322,186.646z"/>
	<path fill-rule="evenodd" class="svg-img-fill" clip-rule="evenodd" d="M257.322,188.646
		c4.439,1.894,0.832,11.834,2,17C254.883,203.752,258.49,193.811,257.322,188.646z"/>
	<path fill-rule="evenodd" class="svg-img-fill" clip-rule="evenodd" d="M269.322,189.646
		c2.889-2.609,3.57,15.397,0,16C270.773,202.399,271.136,192.833,269.322,189.646z"/>
	<path fill-rule="evenodd" class="svg-img-fill" clip-rule="evenodd" d="M67.322,189.646
		c3.762,2.107-0.307,12.774-7,11C59.795,194.118,64.35,192.673,67.322,189.646z"/>
	<path fill-rule="evenodd" clip-rule="evenodd" fill="none" d="M458.322,192.646
		c0.656,3.474,3.287,8.735,2,11c-11.116,2.884-21.551,6.449-34,8c0.225-4.225-1.542-6.458-2-10
		C434.579,197.569,446.743,195.4,458.322,192.646z"/>
	<path fill-rule="evenodd" clip-rule="evenodd" fill="none" d="M146.322,212.646
		c0.952-7.715,5.039-12.295,7-19c5.667,0,11.333,0,17,0C162.331,199.987,159.2,211.189,146.322,212.646z"/>
	<path fill-rule="evenodd" clip-rule="evenodd" fill="none" d="M308.322,218.646
		c0.15,2.483-0.517,4.15-2,5c6.837,9.69,11.092,29.167,5,43c-0.989,3.988,2.989,3.012,2,7c-8.25,0.084-7.074,9.593-14,11
		c-6-5.94,5.813-9.979,2-17c14.346-6.984,7.69-41.646-5-42c2.895-6.655-4.884-9.238-7-14c-0.163-1.163,0.221-1.779,1-2
		C297.316,208.363,299.879,220.866,308.322,218.646z"/>
	<path fill-rule="evenodd" clip-rule="evenodd" fill="none" d="M205.322,230.646
		c-3.603-1.704,0.422-10.132-1-16c2.836-2.164,7.507-2.493,10-5C214.538,215.874,206.92,222.9,205.322,230.646z"/>
	<path fill-rule="evenodd" class="svg-img-fill" clip-rule="evenodd" d="M260.322,209.646
		c0.845,0.937,6.375,2.136,7,0C271.833,211.886,258.815,213.504,260.322,209.646z"/>
	<path fill-rule="evenodd" clip-rule="evenodd" fill="none" d="M462.322,211.646
		c1.257,2.6,1.722,9.548,1,11c-7.723,1.943-17.321,2.012-25,4c0.758,4.242,1.242,8.758,2,13c-2.492,0.841-5.357,1.309-9,1
		c-1.436-7.036-3.632-18.18-3-24C439.141,214.464,450.54,212.863,462.322,211.646z"/>
	<path fill-rule="evenodd" clip-rule="evenodd" fill="none" d="M110.322,212.646
		c3.578,1.756,3.648,7.019,11,5c-0.068,2.932-2.286,3.714-4,5c0.831,2.503,2.74,3.927,3,7c-5.185-2.996-8.186-3.417-12,1
		c2.019-7.352-3.244-7.422-5-11C108.168,219.825,110.502,217.492,110.322,212.646z"/>
	<path fill-rule="evenodd" clip-rule="evenodd" fill="none" d="M408.322,212.646
		c2.676,2.658,1.349,9.318,9,7c-1.257,3.979-7.922,4.79-4,11c-2.967-0.366-4.933-1.733-6-4c-2.503,0.831-3.927,2.74-7,3
		c3.578-4.605,1.12-9.038-2-12C405.008,219.152,406.651,217.848,408.322,212.646z"/>
	<path fill-rule="evenodd" clip-rule="evenodd" fill="none" d="M200.322,215.646
		c-2.26,8.407-8.477,12.856-12,20c-15.36-0.64-33.298,1.298-47-1c3.502-8.831,12.364-12.302,18-19
		C172.989,215.646,186.656,215.646,200.322,215.646z"/>
	<path fill-rule="evenodd" clip-rule="evenodd" fill="none" d="M185.322,238.646
		c-3.526,4.807-3.835,12.831-6,19c-12.667,0-25.333,0-38,0c-1.62-4.3-1.62-14.7,0-19
		C155.989,238.646,170.656,238.646,185.322,238.646z"/>
	<path fill-rule="evenodd" clip-rule="evenodd" fill="none" d="M467.322,239.646
		c-0.281,3.386-1.591,5.743-1,10c-5.772,1.228-11.32,2.68-18,3c4.292,3.374,11.544,3.789,17,6c0,3,0,6,0,9
		c-6.006,0.994-11.32,2.68-18,3c4.109,3.891,12.361,3.639,17,7c-0.12,2.881,0.546,6.546-1,8c-11.703-3.631-23.356-7.311-34-12
		c0-2.667,0-5.333,0-8c4.516-2.817,12.108-2.558,18-4c-5.224-2.443-11.74-3.594-17-6c-0.701-4.367,1.701-5.632,1-10
		C443.758,244.081,454.455,240.778,467.322,239.646z"/>
	<path fill-rule="evenodd" clip-rule="evenodd" fill="none" d="M145.322,280.646
		c-2.033-5.634-3.279-12.055-4-19c10.421-1.653,27.578-1.653,38,0c-0.648,7.686-5.384,11.282-7,18
		C165.056,281.712,154.181,280.171,145.322,280.646z"/>
	<path fill-rule="evenodd" class="svg-img-fill" clip-rule="evenodd" d="M542.322,260.646
		c4.879,16.454,10.601,32.065,15,49c8.409-13.591,10.917-33.083,17-49c5.667,0,11.333,0,17,0c0,22,0,44,0,66c-3.334,0-6.667,0-10,0
		c-0.342-17.659,0.875-36.875-1-53c-7.848,16.152-10.438,37.562-19,53c-10.543,2.535-13.104-17.14-16-26
		c-3.789-11.592-5.543-21.454-9-28c-2.331,16.002-0.335,36.332-1,54c-3.333,0-6.667,0-10,0c-1.654-19.754-1.654-46.246,0-66
		C530.989,260.646,536.655,260.646,542.322,260.646z"/>
	<path fill-rule="evenodd" class="svg-img-fill" clip-rule="evenodd" d="M1096.322,264.646c0,3.333,0,6.667,0,10
		c1.219,2.781,6.143,1.857,10,2c0,2,0,4,0,6c-1.659,1.675-5.871,0.796-9,1c-1.829,9.287-1.4,24.642,0,34
		c1.743,2.923,8.883,0.45,10,4c-0.722,8.853-15.218,5.962-20,3c-4.672-9.662,0.174-28.841-3-40c-2.116-1.884-7.9-0.1-6-6
		c-0.947-3.614,3.938-1.395,6-2C1087.975,272.525,1087.489,260.422,1096.322,264.646z"/>
	<path fill-rule="evenodd" clip-rule="evenodd" fill="none" d="M107.322,265.646
		c3.096,0.237,3.884,2.782,6,4c2.6-0.4,3.016-2.984,6-3c-2.135,5.568-2,8.534,3,11c-4.35,1.705-9.878-1.289-10,6
		c-3.078-2.256-1.43-9.236-9-7C104.881,272.364,110.771,272.329,107.322,265.646z"/>
	<path fill-rule="evenodd" clip-rule="evenodd" fill="none" d="M410.322,265.646
		c2.552,4.354,2.053,7.816,7,11c-4.974-0.307-7.963,1.37-7,7c-4.394-0.939-3.374-7.293-11-5c2.627-3.815,3.836-7.362,1-12
		C403.77,268.268,409.155,272.019,410.322,265.646z"/>
	<path fill-rule="evenodd" class="svg-img-fill" clip-rule="evenodd" d="M652.322,322.646
		c1.221,6.554-7.498,3.169-12,4c-3.439-1.561-4.315-5.686-6-9c-4.678,8.896-23.128,14.791-30,5c-10.968-15.625,7.553-31.034,29-26
		c4.855-16.019-15.473-17.881-18-7c-3.396-0.271-8.107,0.774-10-1c1.24-15.221,26.167-16.969,35-9c8.864,7.996,3.407,21.24,5,36
		C645.354,320.281,650.968,319.333,652.322,322.646z M620.322,319.646c7.642,1.615,14.021-6.339,13-17
		C615.497,296.391,607.979,317.037,620.322,319.646z"/>
	<path fill-rule="evenodd" class="svg-img-fill" clip-rule="evenodd" d="M704.322,326.646
		c-3.675-0.325-8.854,0.853-11-1c-1.504-16.383,4.922-40.46-9-42c-16.394-1.814-12.852,22.854-13,42c-2.294,1.563-9.707,1.563-12,0
		c0-16.333,0-32.667,0-49c3,0,6,0,9,0c3.65,0.35,1.549,6.451,3,9c5.804-10.069,23.896-15.078,31-4
		C709.479,292.806,703.855,311.673,704.322,326.646z"/>
	<path fill-rule="evenodd" class="svg-img-fill" clip-rule="evenodd" d="M765.322,323.646
		c0.129,5.462-8.622,2.045-13,3c-2.219-2.448-3.93-5.404-5-9c-6.338,12.627-33.093,13.956-33-5c0.066-13.757,13.56-17.346,31-16
		c7.308-13.819-14.717-19.223-17-7c-4.1,0.1-8.197,0.196-11-1c2.952-11.504,15.561-15.839,28-13c15.231,3.477,13.311,22.031,13,41
		C758.247,321.387,765.394,318.907,765.322,323.646z M729.322,318.646c10.797,3.443,17.467-4.943,17-16
		C732.755,299.494,722.299,307.572,729.322,318.646z"/>
	<path fill-rule="evenodd" class="svg-img-fill" clip-rule="evenodd" d="M804.322,283.646
		c2.375-0.625-0.155-6.155,2-7c3.675,0.325,8.853-0.854,11,1c-6.019,20.636,7.646,55.213-8,66c-9.738,6.714-32.482,5.752-37-8
		c2.483-1.184,5.886-1.448,9-2c8.786,12.227,29.636,4.786,24-15c-5.396,0.197-5.588,5.426-10,7c-32.787,11.698-36.748-59.02-1-50
		C798.961,276.815,799.521,280.83,804.322,283.646z M794.322,318.646c13.975-0.926,15.611-39.12-3-35
		C777.751,286.65,778.329,319.705,794.322,318.646z"/>
	<path fill-rule="evenodd" class="svg-img-fill" clip-rule="evenodd" d="M873.322,302.646
		c-10.745,0.922-25.421-2.087-33,2c1.354,7.398,1.958,13.256,7,15c8.716,3.015,14.488-7.123,24-5c-1.766,13.69-22.932,15.93-33,10
		c-21.532-12.682-11.14-55.956,20-49C868.663,277.955,874.494,290.229,873.322,302.646z M841.322,295.646c7,0,14,0,21,0
		C864.626,279.213,838.879,278.513,841.322,295.646z"/>
	<path fill-rule="evenodd" class="svg-img-fill" clip-rule="evenodd" d="M918.322,275.646
		c3.472,2.528,6.425,5.575,8,10c5.898-2.905,5.437-8.502,11-10c26.067-7.021,19.472,28.652,20,51c-3.667,0-7.334,0-11,0
		c-1.794-15.094,4.702-40.447-7-43c-15.985-3.486-11.525,24.834-12,42c-2.294,1.563-9.707,1.563-12,0
		c-1.687-15.562,5.066-41.097-8-42c-14.567-1.007-10.425,25.731-11,43c-3.667,0-7.334,0-11,0c0.16-16.206-0.223-37.05,0-50
		c3.333,0,6.666,0,10,0c1.674,1.659,0.796,5.871,1,9C902.323,280.979,905.131,273.12,918.322,275.646z"/>
	<path fill-rule="evenodd" class="svg-img-fill" clip-rule="evenodd" d="M1013.322,302.646
		c-10.745,0.922-25.421-2.087-33,2c1.354,7.398,1.958,13.256,7,15c8.716,3.015,14.488-7.123,24-5c-1.766,13.69-22.933,15.93-33,10
		c-21.532-12.682-11.14-55.956,20-49C1008.663,277.955,1014.494,290.229,1013.322,302.646z M981.322,295.646c7,0,14,0,21,0
		C1004.707,279.295,978.709,278.343,981.322,295.646z"/>
	<path fill-rule="evenodd" class="svg-img-fill" clip-rule="evenodd" d="M1070.322,325.646
		c-2.294,1.563-9.707,1.563-12,0c-1.455-17.342,5.276-41.877-10-42c-15.521-0.125-11.542,24.415-12,43c-3.667,0-7.334,0-11,0
		c0.16-16.206-0.223-37.05,0-50c3.333,0,6.666,0,10,0c1.674,1.659,0.795,5.871,1,9c6.306-7.515,18.04-14.613,28-8
		C1075.856,285.306,1067.832,308.553,1070.322,325.646z"/>
	<path fill-rule="evenodd" class="svg-img-fill" clip-rule="evenodd" d="M186.322,276.646
		c2.324,6.343,0.341,16.992,1,25c-3.437,3.229-6.508,6.825-12,8C172.505,292.162,179.521,284.511,186.322,276.646z"/>
	<path fill-rule="evenodd" clip-rule="evenodd" fill="none" d="M428.322,278.646
		c11.024,5.976,22.146,11.854,31,20c-0.002,3.998-1.998,6.002-2,10c-11.527,1.473-24.741,1.26-37,2c-0.321-4.654,1.994-6.673,2-11
		c5.827,0.494,9.052-1.615,9-7c0.633-4.967-5.36-3.307-5-8C427.979,283.635,427.408,280.398,428.322,278.646z M439.322,299.646
		c2.072-0.595,6.569,1.236,7-1c-2.503-0.83-3.927-2.739-7-3C439.322,296.979,439.322,298.313,439.322,299.646z"/>
	<path fill-rule="evenodd" clip-rule="evenodd" fill="none" d="M791.322,283.646
		c18.611-4.12,16.975,34.074,3,35C778.329,319.705,777.751,286.65,791.322,283.646z"/>
	<path fill-rule="evenodd" clip-rule="evenodd" fill="none" d="M862.322,295.646
		c-7,0-14,0-21,0C838.879,278.513,864.626,279.213,862.322,295.646z"/>
	<path fill-rule="evenodd" clip-rule="evenodd" fill="none" d="M1002.322,295.646
		c-7,0-14,0-21,0C978.709,278.343,1004.707,279.295,1002.322,295.646z"/>
	<path fill-rule="evenodd" clip-rule="evenodd" fill="none" d="M146.322,283.646
		c7.333,0,14.667,0,22,0c-1.589,9.093-4.748,19.822-12,19C149.709,301.896,149.479,290.587,146.322,283.646z"/>
	<path fill-rule="evenodd" clip-rule="evenodd" fill="none" d="M373.322,283.646
		c0.578,5.445-4.074,13.777-7,19c-14.333,0-28.667,0-43,0c0.528-6.139-1.144-14.477,1-19
		C340.655,283.646,356.989,283.646,373.322,283.646z"/>
	<path fill-rule="evenodd" class="svg-img-fill" clip-rule="evenodd" d="M439.322,295.646
		c3.073,0.261,4.497,2.17,7,3c-0.431,2.236-4.928,0.405-7,1C439.322,298.313,439.322,296.979,439.322,295.646z"/>
	<path fill-rule="evenodd" clip-rule="evenodd" fill="none" d="M218.322,299.646
		c0.484,3.817-0.284,6.383-2,8c-1.667,0-3.333,0-5,0C205.158,302.982,213.165,292.985,218.322,299.646z"/>
	<path fill-rule="evenodd" clip-rule="evenodd" fill="none" d="M319.322,301.646
		c-0.645,4.022-2.479,6.854-8,6C304.17,300.846,316.312,292.827,319.322,301.646z"/>
	<path fill-rule="evenodd" clip-rule="evenodd" fill="none" d="M633.322,302.646
		c1.021,10.661-5.358,18.615-13,17C607.979,317.037,615.497,296.391,633.322,302.646z"/>
	<path fill-rule="evenodd" clip-rule="evenodd" fill="none" d="M746.322,302.646
		c0.467,11.057-6.203,19.443-17,16C722.299,307.572,732.755,299.494,746.322,302.646z"/>
	<path fill-rule="evenodd" clip-rule="evenodd" fill="none" d="M324.322,305.646
		c13,0,26,0,39,0c0.183,6.988-8.244,13.653-12,20c-8.635-2.032-25.774,4.44-28-4c-2.586,3.414-10.472,1.528-16,2c0-3,0-6,0-9
		c5.186,0.481,12.41-1.077,16,1C323.594,312.25,322.548,307.538,324.322,305.646z"/>
	<path fill-rule="evenodd" class="svg-img-fill" clip-rule="evenodd" d="M80.322,308.646
		c2.906,0.019,2.364,5.651,1,7C79.086,315.215,80.917,310.717,80.322,308.646z"/>
	<path fill-rule="evenodd" clip-rule="evenodd" fill="none" d="M225.322,309.646
		c12.591-3.316,14.917,14.166,6,17C220.882,329.963,214.799,312.417,225.322,309.646z"/>
	<path fill-rule="evenodd" clip-rule="evenodd" fill="none" d="M290.322,322.646
		c0-3,0-6,0-9C309.605,295.984,309.605,340.307,290.322,322.646z"/>
	<path fill-rule="evenodd" clip-rule="evenodd" fill="none" d="M203.322,310.646
		c6,0,12,0,18,0C219.438,313.68,205.132,314.11,203.322,310.646z"/>
	<path fill-rule="evenodd" clip-rule="evenodd" fill="none" d="M305.322,312.646
		c1.894-4.439,11.834-0.832,17-2C320.428,315.085,310.488,311.478,305.322,312.646z"/>
	<path fill-rule="evenodd" clip-rule="evenodd" fill="none" d="M133.322,313.646
		c-0.093,6.093,4.046,7.954,7,11c-4.39,0.276-8.255,1.078-7,7c-3.151-0.56-5.486-7.122-10-3c-4.146-2.246,6.184-7.142-1-11
		c0.904-2.415,5.645-0.427,6,1C130.414,317.404,132.081,315.737,133.322,313.646z"/>
	<path fill-rule="evenodd" clip-rule="evenodd" fill="none" d="M288.322,314.646
		c0.902,2.202-0.143,4.295,1,8c-3.287,2.047-10.126,0.54-15,1c-2.172-2.956-1.518-2.938-2-8
		C275.471,312.674,281.604,315.576,288.322,314.646z"/>
	<path fill-rule="evenodd" clip-rule="evenodd" fill="none" d="M385.322,313.646
		c2.092,1.241,3.758,2.908,5,5c3.164,0.164,3.342-2.658,7-2c-0.112,2.555-1.833,3.5-3,5c0.463,3.203,3.807,3.526,4,7
		c-5.924-3.635-7.519,2.245-11,4c1.235-6.235-2.511-7.489-7-8c0.803-2.53,4.116-2.55,6-4
		C384.944,319.356,385.333,316.302,385.322,313.646z"/>
	<path fill-rule="evenodd" clip-rule="evenodd" fill="none" d="M219.322,323.646
		c-5,0-10,0-15,0c-1.674-1.659-0.796-5.871-1-9c5,0,10,0,15,0C218.944,317.038,218.631,319.355,219.322,323.646z"/>
	<path fill-rule="evenodd" clip-rule="evenodd" fill="none" d="M237.322,314.646
		c11.333,0,22.667,0,34,0c-0.205,3.129,0.674,7.341-1,9c-3.587-0.079-0.795-6.538-3-8c-4.983,0.351-12.438-1.771-11,5
		c0.508-5.228,11.867-5.902,11,1c-1.857,2.81-7.432,1.901-12,2c-1.378-1.289-0.99-4.344-1-7c-2.375,0.625,0.155,6.155-2,7
		c-5,0-10,0-15,0C237.322,320.646,237.322,317.646,237.322,314.646z"/>
	<path fill-rule="evenodd" clip-rule="evenodd" fill="none" d="M453.322,317.646
		c0.81,5.477-3.34,5.993-3,11c-4.736-0.402-6.882,1.785-12,1c-0.973,2.018,4.709,5.924,6,9c-0.046,3.954-2.202,5.798-3,9
		c-9.172-7.828-13.073-20.927-28-23c0.064-4.602,2.842-6.491,4-10C427.586,319.815,439.462,320.137,453.322,317.646z"/>
	<path fill-rule="evenodd" class="svg-img-fill" clip-rule="evenodd" d="M269.322,330.646c1.483,0.85,2.15,2.517,2,5
		c-1.279,1.367-4.722,1.367-6,0c0-1.333,0-2.667,0-4C266.906,331.563,269.136,332.126,269.322,330.646z"/>
	<path fill-rule="evenodd" class="svg-img-fill" clip-rule="evenodd" d="M211.322,331.646c1.003,4.67-1.744,5.59-6,5
		C204.319,331.976,207.066,331.056,211.322,331.646z"/>
	<path fill-rule="evenodd" class="svg-img-fill" clip-rule="evenodd" d="M235.322,331.646
		c2.651,0.015,5.888-0.555,6,2C241.798,338.723,232.929,337.225,235.322,331.646z"/>
	<path fill-rule="evenodd" class="svg-img-fill" clip-rule="evenodd" d="M295.322,331.646c1.667,0,3.333,0,5,0
		c0,1.667,0,3.333,0,5c-1.667,0-3.333,0-5,0C295.322,334.979,295.322,333.313,295.322,331.646z"/>
	<path fill-rule="evenodd" class="svg-img-fill" clip-rule="evenodd" d="M163.322,336.646
		c4.054-0.388,1.102,6.231,2,9c-2.6,0.4-3.016,2.984-6,3C158.211,342.201,160.673,339.33,163.322,336.646z"/>
	<path fill-rule="evenodd" clip-rule="evenodd" fill="none" d="M416.322,338.646
		c1.924,10.924-10.25,7.75-11,16c5.559,0.654,8.238-7.341,14-8c21.555-2.467,12.116,32.449-6,27c-1.712-9.378,7.289-8.044,9-14
		c-7.067-1.186-8.651,7.847-16,8C386.118,368.066,396.645,331.158,416.322,338.646z"/>
	<path fill-rule="evenodd" class="svg-img-fill" clip-rule="evenodd" d="M220.322,343.646
		c0.89,0.615,1.789,1.208,2,0c2.555,0.111,1.985,3.349,2,6C219.38,351.238,218.065,346.196,220.322,343.646z"/>
	<path fill-rule="evenodd" class="svg-img-fill" clip-rule="evenodd" d="M253.322,343.646
		c3.815,0.897,2.197,8.106-3,6c0-1.667,0-3.333,0-5C251.741,344.731,253.154,344.811,253.322,343.646z"/>
	<path fill-rule="evenodd" class="svg-img-fill" clip-rule="evenodd" d="M266.322,343.646
		c1.803,1.302-1.254,5.405,1,8C263.539,352.305,265.447,344.64,266.322,343.646z"/>
	<path fill-rule="evenodd" class="svg-img-fill" clip-rule="evenodd" d="M282.322,343.646c1,0,2,0,3,0
		c2.257,2.551,0.942,7.593-4,6C281.19,347.181,281.171,344.827,282.322,343.646z"/>
	<path fill-rule="evenodd" class="svg-img-fill" clip-rule="evenodd" d="M316.322,343.646
		c0.839,1.161,1.319,2.681,1,5c-1.279,1.367-4.722,1.367-6,0c0-1.333,0-2.667,0-4C313.731,345.055,313.496,342.819,316.322,343.646z
		"/>
	<path fill-rule="evenodd" class="svg-img-fill" clip-rule="evenodd" d="M154.322,344.646
		c2.158,2.225,1.727,10.344-3,9C150.384,348.708,152.54,346.863,154.322,344.646z"/>
	<path fill-rule="evenodd" class="svg-img-fill" clip-rule="evenodd" d="M146.322,352.646
		c1.965,0.454,1.797,7.016-2,5C144.168,355.158,145.893,354.55,146.322,352.646z"/>
	<path fill-rule="evenodd" clip-rule="evenodd" fill="none" d="M354.322,353.646
		c4.622,1.045,2.967,8.366,11,6c-3.757,2.686-4.887,6.312-2,11c-3.38,0.38-4.267-1.733-6-3c-2.711,0.622-2.489,4.178-6,4
		c2.362-7.595-1.599-7.32-4-12C352.43,360.42,355.587,359.244,354.322,353.646z"/>
	<path fill-rule="evenodd" class="svg-img-fill" clip-rule="evenodd" d="M241.322,356.646
		c1.592,4.942-3.449,6.257-6,4c0-1,0-2,0-3C236.504,356.494,238.857,356.514,241.322,356.646z"/>
	<path fill-rule="evenodd" class="svg-img-fill" clip-rule="evenodd" d="M271.322,356.646c1.003,4.67-1.744,5.59-6,5
		C264.319,356.976,267.066,356.056,271.322,356.646z"/>
	<path fill-rule="evenodd" clip-rule="evenodd" fill="none" d="M201.322,367.646
		c0.488,9.154-1.734,15.6-11,15c-2.512-1.488-3.784-4.216-5-7c-1.479,8.57-15.438,15.117-17,2c-2.207,0.793-1.299,4.7-4,5
		c-4.818,0.484-6.896-1.771-8-5c-1.7,1.967-3.068,4.266-6,5c-5.536-5.643-16.141-0.664-22-9
		C151.41,370.4,176.942,369.599,201.322,367.646z"/>
	<path fill-rule="evenodd" class="svg-img-fill" clip-rule="evenodd" d="M250.322,369.646c1.667,0,3.333,0,5,0
		c0,1.667,0,3.333,0,5c-1.667,0-3.333,0-5,0C250.322,372.979,250.322,371.313,250.322,369.646z"/>
	<path fill-rule="evenodd" clip-rule="evenodd" fill="none" d="M266.322,374.646
		c0-1.333,0-2.667,0-4c1.667,0,3.333,0,5,0C270.036,372.359,269.254,374.578,266.322,374.646z"/>
	<path fill-rule="evenodd" class="svg-img-fill" clip-rule="evenodd" d="M575.322,386.646
		c-1.621,2.046-7.379-0.046-9,2c-4.381-1.582-4.057-6.099-9-8c-7.863-3.025-20.236-0.503-21,7c-1.496,14.694,31.154,12.194,38,20
		c24.504,27.939-48.622,48.972-52,15c2.089-1.577,6.64-0.693,9-2c3.821,11.85,35.275,15.55,35,0c-0.277-15.678-32.659-8.801-40-21
		C509.544,371.762,571.977,358.123,575.322,386.646z"/>
	<path fill-rule="evenodd" class="svg-img-fill"  clip-rule="evenodd" d="M709.322,376.646c0,3.333,0,6.667,0,10
		c1.219,2.781,6.143,1.857,10,2c0,2,0,4,0,6c-1.659,1.675-5.871,0.796-9,1c-1.649,8.78-1.649,24.219,0,33
		c1.078,2.921,4.762,3.238,9,3c1.78,8.369-5.208,8.206-10,8c-15.677-0.675-11.722-24.752-12-43c0.164-2.831-6.164,0.831-6-2
		c0-1.333,0-2.667,0-4c-0.947-3.614,3.938-1.395,6-2C700.981,384.532,700.294,372.228,709.322,376.646z"/>
	<path fill-rule="evenodd" clip-rule="evenodd" fill="none" d="M313.322,378.646
		c1.399,3.935,0.815,9.851,7,9c-1.912,3.421-7.175,3.491-5,11c-2.925-0.408-3.245-3.422-5-5c-2.833,0.167-4.167,1.833-7,2
		c2.98-4.529,3.391-7.734,0-12C309.567,385.66,311.563,383.299,313.322,378.646z"/>
	<path fill-rule="evenodd" clip-rule="evenodd" fill="none" d="M205.322,379.646
		c3.405-0.072,3.725,2.941,5,5c2.833-0.167,4.167-1.833,7-2c-0.237,3.096-2.783,3.884-4,6c0.4,2.6,2.984,3.016,3,6
		c-5.273-2.154-8.517-0.154-10,4c0.093-6.093-4.046-7.954-7-11c3.059,0.726,2.941-1.726,6-1
		C205.322,384.313,205.322,381.979,205.322,379.646z"/>
	<path fill-rule="evenodd" class="svg-img-fill" clip-rule="evenodd" d="M683.322,399.646
		c-10.558,3.67-22.716-13.479-31,0c6.105,15.189,35.044,4.45,33,26c-1.638,17.263-39.453,20.774-44,1c8.684-3.952,7.522,2.566,14,5
		c7.865,2.955,18.067,0.884,19-5c2.462-15.533-40.456-3.484-32-30C647.453,384.296,681.98,383.11,683.322,399.646z"/>
	<path fill-rule="evenodd" class="svg-img-fill" clip-rule="evenodd" d="M771.322,414.646
		c-10.803,0.531-23.813-1.147-33,1c-0.169,9.517,2.43,14.669,8,16c8.194,1.958,13.78-7.489,23-5c-10.173,23.049-44,13.419-44-13
		c0-5.146,1.168-14.862,6-20C745.047,379.05,775.952,389.987,771.322,414.646z M738.322,407.646c7,0,14,0,21,0
		C761.765,390.513,736.019,391.213,738.322,407.646z"/>
	<path fill-rule="evenodd" class="svg-img-fill" clip-rule="evenodd" d="M823.322,397.646
		c5.202-1.798,6.265-7.735,11-10c28.093-5.028,20.568,30.678,20,51c-3.675-0.325-8.854,0.853-11-1c-1.887-14.872,4.995-39.804-7-42
		c-15.466-2.832-11.748,24.518-12,42c-2.147,1.853-7.325,0.675-11,1c-4.421-13.435,5.202-41.091-8-43
		c-15.472-2.237-10.135,25.048-11,42c-2.294,1.563-9.707,1.563-12,0c0-16.333,0-32.667,0-49c3.667,0,7.333,0,11,0
		c0,2.667,0,5.333,0,8c5.082-1.821,10.94-12.18,22-9C819.078,388.726,821.729,392.861,823.322,397.646z"/>
	<path fill-rule="evenodd" class="svg-img-fill" clip-rule="evenodd" d="M584.322,388.646c4,0,8,0,12,0
		c4.131,13.202,8.897,25.77,13,39c6.21-11.124,8.19-26.476,13-39c4,0,8,0,12,0c-9.605,12.737-14.01,59.347-29,68
		c-1.99,1.148-18.954,6.929-18-4C620.504,444.371,587.47,408.587,584.322,388.646z"/>
	<path fill-rule="evenodd" clip-rule="evenodd" fill="none" d="M254.322,389.646
		c4.147,3.98,7.256,2.278,12,0c-1.859,4.483-2.892,9.164,3,10c-2.013,3.32-9.821,0.846-8,8c-4.723-0.611-1.889-8.778-10-6
		C253.449,397.359,256.722,396.276,254.322,389.646z"/>
	<path fill-rule="evenodd" clip-rule="evenodd" fill="none" d="M759.322,407.646
		c-7,0-14,0-21,0C736.019,391.213,761.765,390.513,759.322,407.646z"/>
	<path fill-rule="evenodd" class="svg-img-fill" clip-rule="evenodd" d="M239.322,16.646
		c77.164-6.335,137.816,21.367,177,57c40.333,36.678,72.194,83.482,79,155c7.192,75.579-21.629,133.738-57,175
		c-36.277,42.318-85.699,73.197-154,80c-71.264,7.098-134.747-20.158-176-56c-42.264-36.72-74.178-85.702-80-154
		c-6.803-79.818,20.51-137.196,55-177C116.532,58.319,172.043,22.169,239.322,16.646z M161.322,119.646c0-2,0-4,0-6
		c-7.927,0.594-14.52-0.147-15-7c1.336-0.997,1.964-2.703,4-3c2.726,0.94,1.899,5.434,7,4c3.747,0.08,0.253-7.08,4-7
		c2.421,3.245,4.585,6.748,8,9c3.708,0.708,4.292-1.708,8-1c-2.942-10.392-11.722-14.945-16-24c1.486-1.181,4.468-0.865,4-4
		c-2.101-1.232-3.899-2.768-6-4c-6.693,4.161-13.285,8.951-21,15c-6.19,4.854-14.045,14.367-20,16c-10.484,2.875-24.56-4.232-26,11
		c1.904,0.429,2.512,2.154,5,2c4.918-2.082,5.901-8.099,15-6c-1.529,4.137-5.804,5.529-7,10c8.968,4.646,10.149-5.38,17-6
		c0.013,1.987,2.729,1.271,2,4c-0.493,2.84-5.227,1.439-4,6c3.899,11.005,24.787,4.521,30-1c-2.909-4.808-9.918,0.635-16-1
		c1.403-8.736-3.552-11.115-8-14c7.411-8.922,16.96-15.707,27-22c1.151,1.182,1.132,3.535,1,6
		C129.755,94.939,136.976,126.773,161.322,119.646z M253.322,77.646c3,0,6,0,9,0c0.653-5.68-1.315-13.982,1-18
		c6,6.667,4.953,20.381,19,19c2.204-10.129,0.135-24.531,2-35c-1.822-1.528-8.178-1.528-10,0c-0.65,5.017,1.311,12.644-1,16
		c-2.039-6.627-6.193-11.14-9-17c-3.667,0-7.333,0-11,0C253.322,54.312,253.322,65.979,253.322,77.646z M237.322,77.646
		c2.293,1.563,9.707,1.563,12,0c-1.594-10.739-1.541-23.126-3-34C225.698,40.292,240.32,65.645,237.322,77.646z M310.322,82.646
		c12.419-3.132,15.179-21.771,8-30c-4.74-5.434-13.736-5.525-24-7c-1.909,11.758-5.595,21.738-7,34
		C296.559,80.057,302.447,84.632,310.322,82.646z M319.322,88.646c4.405,0.261,5.884,3.449,11,3c3.845-10.821,7.854-21.48,12-32
		c-3.481-1.519-6.203-3.797-11-4C327.804,67.127,322.375,76.698,319.322,88.646z M189.322,76.646c2.552,12.934,22.952,7.908,19-6
		c-0.927-3.261-4.405-8.223-13-5C189.894,67.681,188.014,70.016,189.322,76.646z M356.322,67.646c-7.286,9.38-17.283,16.05-25,25
		c4.318,4.574,9.767,4.251,14,0c1.091,2.242,4.909,1.757,6,4c0.828,3.589-2.255,4.838,0,7c2.816,1.851,5.116,4.217,9,5
		c2.482-11.851,5.896-22.771,7-36C363.907,70.727,361.324,67.977,356.322,67.646z M377.322,124.646c3.056,0.944,3.134,4.866,7,5
		c3.403-8.911,32.505-26.94,15-32c-4.67,3.33-7.223,8.777-11,13c0.924-6.742,2.201-13.133,3-20c-1.934-3.066-5.474-4.526-8-7
		c-7.244,9.09-15.704,16.963-22,27c1.478,2.522,3.867,4.133,7,5c4.073-3.275,8.146-11.834,12-12
		C378.431,109.754,377.169,116.492,377.322,124.646z M251.322,94.646c-0.316,3.983,4.625,2.708,5,6c-1.434,1.233-1.895,3.439-2,6
		c4.529-2.98,7.734-3.391,12,0c0.101-3.101-1.223-4.777-2-7c1.481-1.852,5.168-1.498,5-5c-7.818,2.485-5.805-4.862-10-6
		C259.808,93.798,257.01,95.667,251.322,94.646z M199.322,108.646c5.879-0.879,6.289,3.711,7,8c3.247-4.164,5.519-4.425,11-5
		c-5.539-2.365-0.28-8.154-2-11c-4.377,4.768-6.494-1.393-10-3C207.311,105.301,201.901,105.558,199.322,108.646z M303.322,102.646
		c5.41,2.59,1.185,7.042,0,11c2.833-0.167,4.167-1.833,7-2c1.275,2.059,1.595,5.072,5,5c0-2.333,0-4.667,0-7
		c3.059,0.725,2.941-1.725,6-1c-2.954-3.046-7.093-4.907-7-11C312.944,103.348,307.507,101.598,303.322,102.646z M394.322,252.646
		c2.979-79.359-61.152-141.546-139-139c-74.915,2.45-134.677,67.001-129,145c2.06,28.305,10.938,48.026,27,68
		c1.108-5.56-3.589-8.863,0-16c-47.724-78.822,10.954-180.051,94-186c78.525-5.625,133.004,49.873,137,117
		c3.141,52.765-25.452,88.583-53,108c-16.001,11.278-38.562,16.088-51,31C347.413,365.972,391.749,321.2,394.322,252.646z
		 M395.322,143.646c2.123,2.877,2.637,7.363,7,8c3.734-1.268,6.935-7.27,11-5c-1.879,5.121-6.414,7.586-8,13
		c3.96,5.707,7.979,11.354,11,18c3.059,0.725,2.941-1.726,6-1c0.852,2.815,3.23,4.103,3,8c-0.789,2.211-3.498,2.502-5,4
		c1.016,3.65,2.481,6.853,4,10c11.261-5.739,18.743-15.257,29-22c-1.266-4.068-2.938-7.728-5-11c-11.522,0.151-25.73,2.928-35,2
		c2.818-3.515,4.505-8.162,8-11c26.124,4.162,11.723-26.132,2-33C414.877,131.2,402.861,135.184,395.322,143.646z M157.322,125.646
		c3.224,5.782,0.403,7.504-2,12c3.056,0.723,3.644-1.022,6-1c1.873,1.794,1.195,6.138,4,7c-0.903-6.57,4.962-6.371,8-9
		c-7.248-0.163-1.997-7.948-6-10C165.989,129.518,160.611,126.877,157.322,125.646z M347.322,136.646c8.111-2.778,5.277,5.389,10,6
		c-0.88-5.213,3.199-5.467,8-5c-2.687-4.779-4.787-5.781-2-12c-4.988,2.522-7.499,3.626-12,0
		C354.771,132.329,348.88,132.364,347.322,136.646z M201.322,145.646c13.583-1.4,24.18,1.898,36,0c9.588-1.54,15.952-7.463,25-6
		c4.375,0.708,7.575,5.088,12,6c13.258,2.73,27.385-1.977,45,0C294.303,123.268,226.272,122.977,201.322,145.646z M170.322,193.646
		c-5.667,0-11.333,0-17,0c-1.961,6.705-6.048,11.285-7,19C159.2,211.189,162.331,199.987,170.322,193.646z M164.322,209.646
		c15.504-13.166,30.431-24.028,50-34c11.851-6.039,36.424-19.24,40,0c4.012,0.868,13.364-0.857,19,1
		c4.879-14.065,1.202-32.322-10-35c-12.686-3.033-27.877,6.848-38,13c-23.404,14.224-40.688,28.916-58,45
		c-9.459,8.789-20.607,15.657-25,27C150.241,224.658,156.471,216.313,164.322,209.646z M159.322,215.646
		c-5.636,6.698-14.498,10.169-18,19c13.702,2.298,31.64,0.36,47,1c3.523-7.144,9.74-11.593,12-20
		C186.656,215.646,172.989,215.646,159.322,215.646z M288.322,194.646c1.063-0.043,2.54,0.471,1,1
		c-10.528-0.654-13.967-11.048-23-12c-11.291-1.19-20.729,12.313-33,14c0.299-2.701,4.207-1.793,5-4c-17.333,0-34.667,0-52,0
		c-7.389,6.277-16.508,10.825-22,19c25.462,1.129,49.238,0.572,62-11c-11.294,10.373-19.792,23.542-24,41
		c-0.658-7.342,1.322-17.322-1-23c-3.311,9.097-14.538,16.334-18,26c-2.486,6.941-1.861,14.456-4,21
		c-5.896,18.04-18.235,35.479-26,51c0.831,2.503,2.74,3.927,3,7c-9.151,13.849-16.985,29.015-25,44
		c24.363-6.637,45.915-16.085,70-23c2.96-22.707-0.97-52.303,2-75c0,8.333,0,16.667,0,25c7.657-8.072,21.763-2.96,23,4
		c-0.41-1.257-1.29-2.044-3-2c0,3.667,0,7.333,0,11c15.456,4.119,55.989,7.894,74,0c3.469-0.802,3.844,1.489,7,1
		c-0.665-3.749,2.035-14.795-3-11c3.072-3.28,7.928-10.047,11-10c-1.257,0.41-2.044,1.29-2,3c7.349-2.016,7.849,2.817,12,4
		c1.797-14.711-3.406-25.043,1-32c0,5.333,0,10.667,0,16c15.363,2.304,34.978,0.355,52,1c1.798-5.868,2.606-12.728,4-19
		c-16.074-2.356-41.582-0.287-56-1c-0.827-2.826,1.409-2.591,1-5c14.429,4.571,37.263,0.737,55,2c0-6.333,0-12.667,0-19
		c-18,0-36,0-54,0c-1.651,0.015-0.56,2.774-2,3c1.378-3.16-2.476-6.035,0-7c16.376,1.66,39.624,1.66,56,0
		c-1.394-6.273-2.202-13.131-4-19c-19.725,1.275-44.588-2.588-61,2c0.164-2.576-5.088-4.806-3-6c18.668,2.332,41.666,0.334,62,1
		c1.267-5.816-4.749-12.426-6-19C341.883,194.365,308.799,192.24,288.322,194.646z M214.322,209.646c-2.493,2.507-7.164,2.836-10,5
		c1.422,5.868-2.603,14.296,1,16C206.92,222.9,214.538,215.874,214.322,209.646z M172.322,279.646c1.616-6.718,6.352-10.314,7-18
		c-10.422-1.653-27.579-1.653-38,0c0.721,6.945,1.967,13.366,4,19C154.181,280.171,165.056,281.712,172.322,279.646z
		 M156.322,302.646c7.252,0.822,10.411-9.907,12-19c-7.333,0-14.667,0-22,0C149.479,290.587,149.709,301.896,156.322,302.646z
		 M186.322,356.646c5.864-1.386,16.837,0.2,16-9c-21.404,4.948-47.197,14.122-68,23c23.537-1.13,47.882-1.451,68-6
		c-0.319,2.319,0.161,3.839,1,5c12.941,5.392,26.899,9.768,43,12c-10.59-13.744-32.417-16.249-47-26c-10.833,1.506-23.07,6.922-33,6
		C172.463,361.632,179.414,358.278,186.322,356.646z M231.322,326.646c8.917-2.834,6.591-20.316-6-17
		C214.799,312.417,220.882,329.963,231.322,326.646z M218.322,314.646c-5,0-10,0-15,0c0.204,3.129-0.674,7.341,1,9c5,0,10,0,15,0
		C218.631,319.355,218.944,317.038,218.322,314.646z M291.322,324.646c-20.694,1.639-48.547-3.88-63,4
		c-5.706-3.961-14.622-4.712-25-4c0.579,5.953-0.374,16.224,0,25c4.208,1.542,0.159-5.175,3-5c0,1.667,0,3.333,0,5
		c2.729,0.729,2.013-1.987,4-2c-0.426,1.907-2.857,1.81-2,5c7.04,4.037,10.696,4.324,19,4c-0.426,1.907-2.857,1.81-2,5
		c3.604,5.098,10.577,3.696,18,8c0.018,0.011-0.912,2.132,0,3c3.635,3.462,17.134,10.061,20,10c6.02-0.128,13.822-7.204,18-13
		c8.674,1.008,10.673-4.66,17-6c-0.348-2.985-4.782-1.885-3-7c1.667,0,3.333,0,5,0c0.547,1.453-1.168,5.169,1,5
		c16.52-11.622,34.664-15.823,46-33c-8.22,0.447-18.362-1.028-25,1c-2.654-2.323,2.654-2.677,0-5
		C308.18,320.274,298.362,334.356,291.322,324.646z M290.322,313.646c0,3,0,6,0,9C309.605,340.307,309.605,295.984,290.322,313.646z
		 M322.322,310.646c-5.166,1.168-15.106-2.439-17,2C310.488,311.478,320.428,315.085,322.322,310.646z M193.322,189.646
		c19.018-0.649,40.643,1.31,58-1c-1.689-9.672-0.8-8.601,2-16C227.294,164.446,207.036,178.905,193.322,189.646z M88.322,146.646
		c-5.488,11.179-11.238,22.095-16,34c-12.905,2.173-24.965,14.467-18,30c4.497,1.439,8.89-2.367,10-1
		c-6.842,29.119-4.131,68.429,4,94c7.298-1.021,6.101-8.972,4-15c2.492-0.841,5.357-1.31,9-1c-0.267,3.601,1.847,4.819,2,8
		c-12.518,2.663-14.698,29.006-1,27c9.011-1.319,5.025-13.709,4-19c1.957,2.376,3.133,5.534,6,7c6.38-0.803,8.831-10.253,6-17
		c-1.728-2.982-6.182,1.432-7-1c-1.108-1.892-1.276-4.725-2-7c6.856,0.189,8.837-4.497,9-11c-9.626,0.05-19.225,5.429-28,3
		c0-1.333,0-2.667,0-4c8.094-0.239,14.745-1.922,23-2c0.533-3.801,3.123-5.544,3-10c-9.01,0.99-18.409,1.591-27,3
		c-0.91-4.137-4.05-16.748,5-14c1.878,2.371-1.26,5.783,1,9c13.323,2.752,20.761-13.7,22-23c-7.675,0.325-6.292,9.708-13,11
		c-1.832-5.194-9.826-6.032-16-4c1.214-12.786,1.328-26.672,6-36c4.918,4.775-4.488,19.12,3,24c12.275-0.059,19.367-5.3,22-15
		c-5.724-2.589-12.671,12.185-18,4c1.556-3.11,0.964-8.369,4-10c4.564-0.564,6.228,1.772,11,1c2.696-1.971,4.784-4.55,6-8
		c-8.541-2.459-19.946-2.054-27-6c2.156-0.844,0.844-5.156,3-6c8.956,2.161,23.74,13.159,28,0c-7.93-3.736-18.623-4.71-25-10
		c2.212-3.454,1.287-10.047,7-10c4.021,1.103,1.058,6.967,1,10c10.09,3.609,19.603-1.622,18-13c5.828,2.102,10.375-1.104,12-6
		c-7.301-5.389-24.213-5.294-22-17C93.204,144.86,92.19,147.18,88.322,146.646z M173.322,167.646c10,0,20,0,30,0
		c7.687-7.98,19.636-11.698,27-20C201.586,144.576,181.81,150.466,173.322,167.646z M277.322,167.646c23.333,0,46.667,0,70,0
		c-4.953-9.047-14.298-13.702-22-20c-17,0-34,0-51,0C275.634,154,275.935,161.366,277.322,167.646z M122.322,167.646
		c1.834,4.608,4.099,7.099,1,12c3.658,0.658,3.836-2.164,7-2c1.242,2.092,2.908,3.758,5,5c0.802-3.469-1.489-3.844-1-7
		c1.883-1.45,5.197-1.47,6-4c-6.836,1.169-5.983-5.351-9-8C130.405,168.179,127.305,169.595,122.322,167.646z M380.322,171.646
		c5.027,2.853,5.175,6.625,7,11c2.023-5.307,4.492-4.939,10-3c-4.542-4.975,1.823-8.233,0-12c-4.754,4.036-7.498-2.464-10-4
		C388.6,169.923,385.302,171.625,380.322,171.646z M170.322,170.646c-6.142,4.858-10.15,11.85-14,19
		c23.678,3.678,30.647-9.353,41-19C188.322,170.646,179.322,170.646,170.322,170.646z M278.322,188.646
		c26.345,1.656,59.658,1.674,86,0c-6.156-4.947-6.186-15.328-15-18c-19.071-5.781-51.385,4.308-73,0
		C277.935,179.353,278.573,181.235,278.322,188.646z M252.322,183.646c6.908-3.597,19.528-0.929,25-1
		C275.809,175.613,252.409,174.584,252.322,183.646z M424.322,201.646c0.458,3.542,2.225,5.775,2,10c12.449-1.551,22.884-5.116,34-8
		c1.287-2.265-1.344-7.526-2-11C446.743,195.4,434.579,197.569,424.322,201.646z M428.322,216.646c-0.632,5.82,1.564,16.964,3,24
		c3.643,0.309,6.508-0.159,9-1c-0.758-4.242-1.242-8.758-2-13c7.679-1.988,17.277-2.057,25-4c0.722-1.452,0.257-8.4-1-11
		C450.54,212.863,439.141,214.464,428.322,216.646z M103.322,219.646c1.756,3.578,7.019,3.648,5,11c3.814-4.417,6.815-3.996,12-1
		c-0.26-3.073-2.169-4.497-3-7c1.714-1.286,3.932-2.068,4-5c-7.352,2.019-7.422-3.244-11-5
		C110.502,217.492,108.168,219.825,103.322,219.646z M398.322,217.646c3.12,2.962,5.578,7.395,2,12c3.073-0.26,4.497-2.169,7-3
		c1.067,2.267,3.033,3.634,6,4c-3.922-6.21,2.743-7.021,4-11c-7.651,2.318-6.324-4.342-9-7
		C406.651,217.848,405.008,219.152,398.322,217.646z M141.322,238.646c-1.62,4.3-1.62,14.7,0,19c12.667,0,25.333,0,38,0
		c2.165-6.169,2.474-14.193,6-19C170.656,238.646,155.989,238.646,141.322,238.646z M431.322,245.646c0.701,4.368-1.701,5.633-1,10
		c5.26,2.406,11.776,3.557,17,6c-5.892,1.442-13.484,1.183-18,4c0,2.667,0,5.333,0,8c10.644,4.689,22.297,8.369,34,12
		c1.546-1.454,0.88-5.119,1-8c-4.639-3.361-12.891-3.109-17-7c6.68-0.32,11.994-2.006,18-3c0-3,0-6,0-9
		c-5.456-2.211-12.708-2.626-17-6c6.68-0.32,12.228-1.772,18-3c-0.591-4.257,0.719-6.614,1-10
		C454.455,240.778,443.758,244.081,431.322,245.646z M103.322,276.646c7.57-2.236,5.922,4.744,9,7c0.122-7.289,5.65-4.295,10-6
		c-5-2.466-5.135-5.432-3-11c-2.984,0.016-3.4,2.6-6,3c-2.116-1.218-2.904-3.763-6-4
		C110.771,272.329,104.881,272.364,103.322,276.646z M400.322,266.646c2.836,4.638,1.627,8.185-1,12c7.626-2.293,6.606,4.061,11,5
		c-0.963-5.63,2.026-7.307,7-7c-4.947-3.184-4.448-6.646-7-11C409.155,272.019,403.77,268.268,400.322,266.646z M426.322,284.646
		c-0.36,4.693,5.633,3.033,5,8c0.052,5.385-3.173,7.494-9,7c-0.006,4.327-2.321,6.346-2,11c12.259-0.74,25.473-0.527,37-2
		c0.002-3.998,1.998-6.002,2-10c-8.854-8.146-19.976-14.024-31-20C427.408,280.398,427.979,283.635,426.322,284.646z
		 M324.322,283.646c-2.144,4.523-0.472,12.861-1,19c14.333,0,28.667,0,43,0c2.926-5.223,7.578-13.555,7-19
		C356.989,283.646,340.655,283.646,324.322,283.646z M211.322,307.646c1.667,0,3.333,0,5,0c1.716-1.617,2.484-4.183,2-8
		C213.165,292.985,205.158,302.982,211.322,307.646z M311.322,307.646c5.521,0.854,7.355-1.978,8-6
		C316.312,292.827,304.17,300.846,311.322,307.646z M323.322,315.646c-3.59-2.077-10.814-0.519-16-1c0,3,0,6,0,9
		c5.528-0.472,13.414,1.414,16-2c2.226,8.44,19.365,1.968,28,4c3.756-6.347,12.183-13.012,12-20c-13,0-26,0-39,0
		C322.548,307.538,323.594,312.25,323.322,315.646z M221.322,310.646c-6,0-12,0-18,0C205.132,314.11,219.438,313.68,221.322,310.646
		z M128.322,318.646c-0.355-1.427-5.096-3.415-6-1c7.184,3.858-3.146,8.754,1,11c4.514-4.122,6.849,2.44,10,3
		c-1.255-5.922,2.61-6.724,7-7c-2.954-3.046-7.093-4.907-7-11C132.081,315.737,130.414,317.404,128.322,318.646z M386.322,320.646
		c-1.884,1.45-5.197,1.47-6,4c4.489,0.511,8.235,1.765,7,8c3.481-1.755,5.076-7.635,11-4c-0.193-3.474-3.537-3.797-4-7
		c1.167-1.5,2.888-2.445,3-5c-3.658-0.658-3.836,2.164-7,2c-1.242-2.092-2.908-3.759-5-5
		C385.333,316.302,384.944,319.356,386.322,320.646z M417.322,314.646c-1.158,3.509-3.936,5.398-4,10
		c14.927,2.073,18.828,15.172,28,23c0.798-3.202,2.954-5.046,3-9c-1.291-3.076-6.973-6.982-6-9c5.118,0.785,7.264-1.402,12-1
		c-0.34-5.007,3.81-5.523,3-11C439.462,320.137,427.586,319.815,417.322,314.646z M406.322,367.646c7.349-0.153,8.933-9.186,16-8
		c-1.711,5.956-10.712,4.622-9,14c18.116,5.449,27.555-29.467,6-27c-5.762,0.659-8.441,8.654-14,8c0.75-8.25,12.924-5.076,11-16
		C396.645,331.158,386.118,368.066,406.322,367.646z M347.322,359.646c2.401,4.68,6.362,4.405,4,12c3.511,0.178,3.289-3.378,6-4
		c1.733,1.267,2.62,3.38,6,3c-2.887-4.688-1.757-8.314,2-11c-8.033,2.366-6.378-4.955-11-6
		C355.587,359.244,352.43,360.42,347.322,359.646z M128.322,373.646c5.859,8.336,16.464,3.357,22,9c2.932-0.734,4.3-3.033,6-5
		c1.104,3.229,3.182,5.484,8,5c2.701-0.3,1.793-4.207,4-5c1.563,13.117,15.521,6.57,17-2c1.216,2.784,2.488,5.512,5,7
		c9.266,0.6,11.488-5.846,11-15C176.942,369.599,151.41,370.4,128.322,373.646z M303.322,383.646c3.391,4.266,2.98,7.471,0,12
		c2.833-0.167,4.167-1.833,7-2c1.755,1.578,2.075,4.592,5,5c-2.175-7.509,3.088-7.579,5-11c-6.185,0.851-5.601-5.065-7-9
		C311.563,383.299,309.567,385.66,303.322,383.646z M205.322,386.646c-3.059-0.726-2.941,1.726-6,1c2.954,3.046,7.093,4.907,7,11
		c1.483-4.154,4.727-6.154,10-4c-0.016-2.984-2.6-3.4-3-6c1.217-2.116,3.763-2.904,4-6c-2.833,0.167-4.167,1.833-7,2
		c-1.275-2.059-1.595-5.072-5-5C205.322,381.979,205.322,384.313,205.322,386.646z M251.322,401.646c8.111-2.778,5.277,5.389,10,6
		c-1.821-7.154,5.987-4.68,8-8c-5.892-0.836-4.859-5.517-3-10c-4.744,2.278-7.853,3.98-12,0
		C256.722,396.276,253.449,397.359,251.322,401.646z M272.322,315.646c0.482,5.063-0.172,5.044,2,8c4.874-0.46,11.713,1.047,15-1
		c-1.143-3.705-0.098-5.798-1-8C281.604,315.576,275.471,312.674,272.322,315.646z M237.322,323.646c5,0,10,0,15,0
		c2.155-0.845-0.375-6.375,2-7c0.01,2.656-0.378,5.711,1,7c4.568-0.099,10.143,0.81,12-2c0.867-6.902-10.492-6.228-11-1
		c-1.438-6.771,6.017-4.649,11-5c2.205,1.462-0.587,7.921,3,8c1.674-1.659,0.795-5.871,1-9c-11.333,0-22.667,0-34,0
		C237.322,317.646,237.322,320.646,237.322,323.646z"/>
	<path fill-rule="evenodd" class="svg-img-fill" clip-rule="evenodd" d="M213.322,274.646
		c6.661-2.973,8.779,7.205,13,10c8.227-4.057-4.033-10.09,0-16c-13.058-4.639-9.912-42.149,3-41c-1.118-8.464,5.753-10.477,9-17
		c-8.756-3.37-10.432,10.846-19,8c-2.898,2.882,1.947,3.128,1,7c-5.604,6.603-8.295,18.981-7,31c0.7,6.497,5.179,12.84,0,16
		c-15.142-35.27,7.49-69.433,36-77c2.188,6.146,5.404,11.263,9,16c-46.646,6.96-39.15,78.906,7,77c45.927-1.897,48.497-70.63,5-77
		c1.518-5.816,8.671-5.996,7-15c27.35,6.779,45.991,29.478,42,62C312.864,311.275,233.38,321.431,213.322,274.646z M290.322,209.646
		c-0.779,0.221-1.163,0.837-1,2c2.116,4.762,9.895,7.345,7,14c12.69,0.354,19.346,35.016,5,42c3.813,7.021-8,11.06-2,17
		c6.926-1.407,5.75-10.916,14-11c0.989-3.988-2.989-3.012-2-7c6.092-13.833,1.837-33.31-5-43c1.483-0.85,2.15-2.517,2-5
		C299.879,220.866,297.316,208.363,290.322,209.646z M279.322,298.646c0.729-2.271-1.802-7.802,2-7c-3.049,3.167,1.789,4.087,4,5
		c1.766-1.674-0.888-3.351,0-7c1.768-0.898,2.919-2.414,5-3c-2.466,1.205-6.357,9.418-1,7c-2.97-3.351,1.669-3.351,2,0
		c-0.197-3.863-0.036-7.369,1-10c-3.078,0.745-1.922-2.745-5-2c-1.236,3.235,3.236,0.765,2,4c-5.21,3.79-13.528,4.473-18,9
		c2.224,0.441,5.422-3.088,6-1c-3.115,2.597-3.85,3.626-6,3C275.544,302.01,276.262,293.047,279.322,298.646z M256.322,290.646
		c1.182,0.485,2.267,1.066,3,2c-9.683,0.349-14.302-4.364-21-7c0.386,2.545,0.31,10.898,3,10c-0.144-1.182-1.781-2.268,0-3
		c0.221,0.779,0.837,1.163,2,1c0.17,1.496-0.357,3.69,1,4c1.127-4.122,2.873,4.122,4,0c-1.122-0.212-1.557-1.109-2-2
		c1.003,0.003,1.19-0.81,2-1c2.008,2.325,4.136,4.531,7,6c0.156-1.177-0.172-2.839,1-3c1.951,1.049,3.994,2.006,6,3
		c0.157-1.177-0.172-2.839,1-3c0.691,1.975,2.667,2.666,5,3c0-2.333,0-4.667,0-7C261.351,296.25,259.483,288.529,256.322,290.646z"
		/>
	<path fill-rule="evenodd" clip-rule="evenodd" fill="none" d="M367.322,193.646
		c1.251,6.574,7.267,13.184,6,19c-20.334-0.666-43.332,1.332-62-1c-2.088,1.194,3.164,3.424,3,6c16.412-4.588,41.275-0.725,61-2
		c1.798,5.869,2.606,12.727,4,19c-16.376,1.66-39.624,1.66-56,0c-2.476,0.965,1.378,3.84,0,7c1.44-0.226,0.349-2.985,2-3
		c18,0,36,0,54,0c0,6.333,0,12.667,0,19c-17.737-1.263-40.571,2.571-55-2c0.409,2.409-1.827,2.174-1,5
		c14.418,0.713,39.926-1.356,56,1c-1.394,6.272-2.202,13.132-4,19c-17.022-0.645-36.637,1.304-52-1c0-5.333,0-10.667,0-16
		c-4.406,6.957,0.797,17.289-1,32c-4.151-1.183-4.651-6.016-12-4c-0.044-1.71,0.743-2.59,2-3c-3.072-0.047-7.928,6.72-11,10
		c5.035-3.795,2.335,7.251,3,11c-3.156,0.489-3.531-1.802-7-1c-18.011,7.894-58.544,4.119-74,0c0-3.667,0-7.333,0-11
		c1.71-0.044,2.59,0.743,3,2c-1.237-6.96-15.343-12.072-23-4c0-8.333,0-16.667,0-25c-2.97,22.697,0.96,52.293-2,75
		c-24.085,6.915-45.637,16.363-70,23c8.015-14.985,15.849-30.151,25-44c-0.26-3.073-2.169-4.497-3-7
		c7.765-15.521,20.104-32.96,26-51c2.139-6.544,1.514-14.059,4-21c3.462-9.666,14.689-16.903,18-26c2.322,5.678,0.342,15.658,1,23
		c4.208-17.458,12.706-30.627,24-41c-12.762,11.572-36.538,12.129-62,11c5.492-8.175,14.611-12.723,22-19c17.333,0,34.667,0,52,0
		c-0.793,2.207-4.701,1.299-5,4c12.271-1.688,21.709-15.19,33-14c9.033,0.952,12.472,11.346,23,12c1.54-0.529,0.063-1.043-1-1
		C308.799,192.24,341.883,194.365,367.322,193.646z M263.322,207.646c-1.217-6.45,2.508-17.841-2-21
		C262.374,193.26,259.048,204.253,263.322,207.646z M265.322,207.646c3.297-2.568,3.297-18.432,0-21
		C265.322,193.646,265.322,200.646,265.322,207.646z M259.322,205.646c-1.168-5.166,2.439-15.106-2-17
		C258.49,193.811,254.883,203.752,259.322,205.646z M269.322,205.646c3.57-0.603,2.889-18.609,0-16
		C271.136,192.833,270.773,202.399,269.322,205.646z M319.322,258.646c3.991-32.522-14.65-55.221-42-62
		c1.671,9.004-5.482,9.184-7,15c43.497,6.37,40.927,75.103-5,77c-46.15,1.906-53.646-70.04-7-77c-3.596-4.737-6.812-9.854-9-16
		c-28.51,7.567-51.142,41.73-36,77c5.179-3.16,0.7-9.503,0-16c-1.295-12.019,1.396-24.397,7-31c0.947-3.872-3.898-4.118-1-7
		c8.568,2.846,10.244-11.37,19-8c-3.247,6.523-10.118,8.536-9,17c-12.912-1.149-16.058,36.361-3,41c-4.033,5.91,8.227,11.943,0,16
		c-4.221-2.795-6.339-12.973-13-10C233.38,321.431,312.864,311.275,319.322,258.646z M267.322,209.646c-0.625,2.136-6.155,0.937-7,0
		C258.815,213.504,271.833,211.886,267.322,209.646z M207.322,272.646c-1.757-3.91-2.919-8.414-4-13c-0.427-9.102-1.521,2.42-1,6
		C206.164,265.188,204.811,275.09,207.322,272.646z M175.322,309.646c5.492-1.175,8.563-4.771,12-8c-0.659-8.008,1.324-18.657-1-25
		C179.521,284.511,172.505,292.162,175.322,309.646z M159.322,348.646c2.984-0.016,3.4-2.6,6-3c-0.898-2.769,2.054-9.388-2-9
		C160.673,339.33,158.211,342.201,159.322,348.646z M151.322,353.646c4.727,1.344,5.158-6.775,3-9
		C152.54,346.863,150.384,348.708,151.322,353.646z M144.322,357.646c3.797,2.016,3.965-4.546,2-5
		C145.893,354.55,144.168,355.158,144.322,357.646z"/>
	<path fill-rule="evenodd" class="svg-img-fill" clip-rule="evenodd" d="M202.322,265.646
		c-0.521-3.58,0.573-15.102,1-6c1.081,4.586,2.243,9.09,4,13C204.811,275.09,206.164,265.188,202.322,265.646z"/>
	<path fill-rule="evenodd" clip-rule="evenodd" fill="none" d="M271.322,296.646
		c2.15,0.626,2.885-0.403,6-3c-0.578-2.088-3.776,1.441-6,1c4.472-4.527,12.79-5.21,18-9c1.236-3.235-3.236-0.765-2-4
		c3.078-0.745,1.922,2.745,5,2c-1.036,2.631-1.197,6.137-1,10c-0.331-3.351-4.97-3.351-2,0c-5.357,2.418-1.466-5.795,1-7
		c-2.081,0.586-3.232,2.102-5,3c-0.888,3.649,1.766,5.326,0,7c-2.211-0.913-7.049-1.833-4-5c-3.802-0.802-1.271,4.729-2,7
		C276.262,293.047,275.544,302.01,271.322,296.646z"/>
	<path fill-rule="evenodd" clip-rule="evenodd" fill="none" d="M268.322,293.646
		c0,2.333,0,4.667,0,7c-2.333-0.334-4.309-1.025-5-3c-1.172,0.161-0.843,1.823-1,3c-2.006-0.994-4.049-1.951-6-3
		c-1.172,0.161-0.844,1.823-1,3c-2.864-1.469-4.992-3.675-7-6c-0.81,0.19-0.997,1.003-2,1c0.443,0.891,0.878,1.788,2,2
		c-1.127,4.122-2.873-4.122-4,0c-1.357-0.31-0.83-2.504-1-4c-1.163,0.163-1.779-0.221-2-1c-1.781,0.732-0.144,1.818,0,3
		c-2.69,0.898-2.614-7.455-3-10c6.698,2.636,11.317,7.349,21,7c-0.733-0.934-1.818-1.515-3-2
		C259.483,288.529,261.351,296.25,268.322,293.646z"/>
	<path fill-rule="evenodd" class="svg-img-fill" clip-rule="evenodd" d="M220.322,339.646
		c-2.236-0.431-0.405-4.929-1-7C220.271,337.255,227.081,333.514,220.322,339.646z"/>
	<path fill-rule="evenodd" class="svg-img-fill" clip-rule="evenodd" d="M257.322,331.646
		c-1.382,2.951-4.618,4.049-6,7c-3.063-2.734,0.875-11.365,0-2C254.422,336.079,253.952,331.941,257.322,331.646z"/>
	<path fill-rule="evenodd" clip-rule="evenodd" fill="none" d="M322.322,324.646
		c2.654,2.323-2.654,2.677,0,5c6.638-2.028,16.78-0.553,25-1c-11.336,17.177-29.48,21.378-46,33c-2.168,0.169-0.453-3.547-1-5
		c-1.667,0-3.333,0-5,0c-1.782,5.115,2.652,4.015,3,7c-6.327,1.34-8.326,7.008-17,6c-4.178,5.796-11.98,12.872-18,13
		c-2.866,0.061-16.365-6.538-20-10c-0.912-0.868,0.018-2.989,0-3c-7.423-4.304-14.396-2.902-18-8c-0.857-3.19,1.574-3.093,2-5
		c-8.304,0.324-11.96,0.037-19-4c-0.857-3.19,1.574-3.093,2-5c-1.987,0.013-1.271,2.729-4,2c0-1.667,0-3.333,0-5
		c-2.841-0.175,1.208,6.542-3,5c-0.374-8.776,0.579-19.047,0-25c10.378-0.712,19.294,0.039,25,4c14.453-7.88,42.306-2.361,63-4
		C298.362,334.356,308.18,320.274,322.322,324.646z M265.322,331.646c0,1.333,0,2.667,0,4c1.278,1.367,4.721,1.367,6,0
		c0.15-2.483-0.517-4.15-2-5C269.136,332.126,266.906,331.563,265.322,331.646z M205.322,336.646c4.256,0.59,7.003-0.33,6-5
		C207.066,331.056,204.319,331.976,205.322,336.646z M219.322,332.646c0.595,2.071-1.236,6.569,1,7
		C227.081,333.514,220.271,337.255,219.322,332.646z M241.322,333.646c-0.112-2.555-3.349-1.985-6-2
		C232.929,337.225,241.798,338.723,241.322,333.646z M251.322,336.646c0.875-9.365-3.063-0.734,0,2c1.382-2.951,4.618-4.049,6-7
		C253.952,331.941,254.422,336.079,251.322,336.646z M295.322,336.646c1.667,0,3.333,0,5,0c0-1.667,0-3.333,0-5
		c-1.667,0-3.333,0-5,0C295.322,333.313,295.322,334.979,295.322,336.646z M312.322,336.646c-0.224-0.776-0.027-1.973-1-2
		c0,1.333,0,2.667,0,4c2.762-0.644,9.751-6.356,6-7C316.881,334.537,315.214,336.204,312.322,336.646z M224.322,349.646
		c-0.015-2.651,0.555-5.889-2-6c-0.211,1.208-1.11,0.615-2,0C218.065,346.196,219.38,351.238,224.322,349.646z M236.322,348.646
		c-1.301-2.483,2.934-4.15,0-5c-1.546,1.454-0.881,5.119-1,8c3.243-1.124,8.675-5.28,7-8c-0.057,0.61-0.149,1.184-1,1
		c0.003-0.556-0.81-1.135-1,0C243.194,345.674,237.351,351.518,236.322,348.646z M250.322,344.646c0,1.667,0,3.333,0,5
		c5.197,2.106,6.815-5.103,3-6C253.154,344.811,251.741,344.731,250.322,344.646z M267.322,351.646c-2.254-2.595,0.803-6.698-1-8
		C265.447,344.64,263.539,352.305,267.322,351.646z M281.322,349.646c4.942,1.593,6.257-3.449,4-6c-1,0-2,0-3,0
		C281.171,344.827,281.19,347.181,281.322,349.646z M311.322,344.646c0,1.333,0,2.667,0,4c1.278,1.367,4.721,1.367,6,0
		c0.319-2.319-0.161-3.839-1-5C313.496,342.819,313.731,345.055,311.322,344.646z M295.322,350.646c0.451,1.667,9.401-6.007,5-6
		C300.304,349.75,295.341,347.688,295.322,350.646z M235.322,357.646c0,1,0,2,0,3c2.551,2.257,7.592,0.942,6-4
		C238.857,356.514,236.504,356.494,235.322,357.646z M265.322,361.646c4.256,0.59,7.003-0.33,6-5
		C267.066,356.056,264.319,356.976,265.322,361.646z M250.322,374.646c1.667,0,3.333,0,5,0c0-1.667,0-3.333,0-5
		c-1.667,0-3.333,0-5,0C250.322,371.313,250.322,372.979,250.322,374.646z M273.322,369.646c-2.667,0-5.333,0-8,0
		c0.609,2.391-1.255,7.255,1,8C268.046,374.369,271.598,372.922,273.322,369.646z"/>
	<path fill-rule="evenodd" class="svg-img-fill" clip-rule="evenodd" d="M317.322,331.646
		c3.751,0.644-3.238,6.356-6,7c0-1.333,0-2.667,0-4c0.973,0.027,0.776,1.224,1,2C315.214,336.204,316.881,334.537,317.322,331.646z"
		/>
	<path fill-rule="evenodd" class="svg-img-fill" clip-rule="evenodd" d="M240.322,344.646
		c0.19-1.135,1.003-0.556,1,0c0.851,0.184,0.943-0.39,1-1c1.675,2.72-3.757,6.876-7,8c0.119-2.881-0.546-6.546,1-8
		c2.934,0.85-1.301,2.517,0,5C237.351,351.518,243.194,345.674,240.322,344.646z"/>
	<path fill-rule="evenodd" class="svg-img-fill" clip-rule="evenodd" d="M300.322,344.646
		c4.401-0.007-4.549,7.667-5,6C295.341,347.688,300.304,349.75,300.322,344.646z"/>
	<path fill-rule="evenodd" class="svg-img-fill" clip-rule="evenodd" d="M266.322,377.646
		c-2.255-0.745-0.391-5.609-1-8c2.667,0,5.333,0,8,0C271.598,372.922,268.046,374.369,266.322,377.646z M271.322,370.646
		c-1.667,0-3.333,0-5,0c0,1.333,0,2.667,0,4C269.254,374.578,270.036,372.359,271.322,370.646z"/>
	<path fill-rule="evenodd" clip-rule="evenodd" fill="none" d="M166.322,361.646
		c9.93,0.922,22.167-4.494,33-6c14.583,9.751,36.41,12.256,47,26c-16.101-2.232-30.059-6.608-43-12c-0.839-1.161-1.319-2.681-1-5
		c-20.118,4.549-44.463,4.87-68,6c20.803-8.878,46.596-18.052,68-23c0.837,9.2-10.136,7.614-16,9
		C179.414,358.278,172.463,361.632,166.322,361.646z"/>
</g>
</svg>
